<svg version="1.1" xmlns="http://www.w3.org/2000/svg" viewBox="0 0 2057.6783786902324 897.2790819763686" width="2057.6783786902324" height="897.2790819763686">
  <!-- svg-source:excalidraw -->
  
  <defs>
    <style class="style-fonts">
      @font-face {
        font-family: "Virgil";
        src: url("https://excalidraw.com/Virgil.woff2");
      }
      @font-face {
        font-family: "Cascadia";
        src: url("https://excalidraw.com/Cascadia.woff2");
      }
      @font-face {
        font-family: "Assistant";
        src: url("https://excalidraw.com/Assistant-Regular.woff2");
      }
    </style>
    
  </defs>
  <g stroke-linecap="round" transform="translate(887.8456289686674 325.684826358618) rotate(0 136.80829157313292 22)"><path d="M11 0 C112.48 -3.4, 206.79 0.24, 262.62 0 M11 0 C67.4 -2.82, 121.07 -2.07, 262.62 0 M262.62 0 C266.19 2.27, 275.02 3.52, 273.62 11 M262.62 0 C270.42 -0.2, 273.96 7.04, 273.62 11 M273.62 11 C270.86 19.65, 270.49 27.08, 273.62 33 M273.62 11 C275.81 17.66, 272.65 23.01, 273.62 33 M273.62 33 C273.63 41.4, 269.12 47.1, 262.62 44 M273.62 33 C273.18 36.12, 266.52 44.74, 262.62 44 M262.62 44 C193.82 45.43, 121.28 44.37, 11 44 M262.62 44 C180.92 40.28, 98.77 39.82, 11 44 M11 44 C4.71 46.43, 0.16 36.36, 0 33 M11 44 C6.23 40.19, 1.16 42.54, 0 33 M0 33 C2.82 27.46, 3.6 19.59, 0 11 M0 33 C-1.58 27.54, 0.14 19.93, 0 11 M0 11 C1.6 4.45, 5.04 -3.9, 11 0 M0 11 C0.53 4.66, 3.91 -3.74, 11 0" stroke="#5f3dc4" stroke-width="2" fill="none"></path></g><g transform="translate(965.2379506931684 330.88482635861874) rotate(0 59.41596984863281 16.799999999999272)"><text x="59.41596984863281" y="23.128" font-family="Virgil, Segoe UI Emoji" font-size="28px" fill="#5f3dc4" text-anchor="middle" style="white-space: pre;" direction="ltr" dominant-baseline="alphabetic">Satellite</text></g><g stroke-linecap="round" transform="translate(13.588008553961117 393.4951234640539) rotate(0 245.5 85.02451888199903)"><path d="M42.51 0 C151.27 -1.89, 265.36 -2.98, 448.49 0 M42.51 0 C177.79 -3.05, 315.55 -3.72, 448.49 0 M448.49 0 C477.24 -0.17, 491.3 17.11, 491 42.51 M448.49 0 C476.76 1.53, 495.06 10.83, 491 42.51 M491 42.51 C487.26 75.74, 488.33 106.02, 491 127.54 M491 42.51 C489.87 74.3, 489.45 106.56, 491 127.54 M491 127.54 C490.62 152.21, 473.85 170.69, 448.49 170.05 M491 127.54 C490.24 154.53, 477.27 173.63, 448.49 170.05 M448.49 170.05 C314.32 168.23, 177.17 169.9, 42.51 170.05 M448.49 170.05 C332.81 168.79, 216.6 167.01, 42.51 170.05 M42.51 170.05 C16.4 166.74, 1.01 157.8, 0 127.54 M42.51 170.05 C13.1 169.66, -3.06 159.08, 0 127.54 M0 127.54 C-1.31 97.76, -2.18 70.33, 0 42.51 M0 127.54 C0.97 97.09, 0.86 63.91, 0 42.51 M0 42.51 C0.46 15.04, 14.39 -3.25, 42.51 0 M0 42.51 C-0.76 13.4, 13.41 -3.9, 42.51 0" stroke="#1864ab" stroke-width="4" fill="none"></path></g><g transform="translate(115.52007642505487 456.91964234605257) rotate(0 143.56793212890625 21.600000000000364)"><text x="143.56793212890625" y="29.735999999999997" font-family="Virgil, Segoe UI Emoji" font-size="36px" fill="#1864ab" text-anchor="middle" style="white-space: pre;" direction="ltr" dominant-baseline="alphabetic">Remote Registry</text></g><g mask="url(#mask-ssIijOysQVcwAmyvaH9de)" stroke-linecap="round"><g transform="translate(876.878563768747 566.0872339819907) rotate(0 -182.4180420621983 -57.80374617173038)"><path d="M0.44 0.43 C-60.72 -18.84, -304.9 -95.4, -365.97 -114.63" stroke="#1e1e1e" stroke-width="2.5" fill="none" stroke-dasharray="1.5 8"></path></g><g transform="translate(876.878563768747 566.0872339819907) rotate(0 -182.4180420621983 -57.80374617173038)"><path d="M-340.99 -115.75 C-349.9 -117.11, -358.62 -116.67, -365.97 -114.63" stroke="#1e1e1e" stroke-width="2.5" fill="none" stroke-dasharray="1.5 6"></path></g><g transform="translate(876.878563768747 566.0872339819907) rotate(0 -182.4180420621983 -57.80374617173038)"><path d="M-346.12 -99.43 C-353.18 -107.11, -359.92 -112.96, -365.97 -114.63" stroke="#1e1e1e" stroke-width="2.5" fill="none" stroke-dasharray="1.5 6"></path></g></g><mask id="mask-ssIijOysQVcwAmyvaH9de"><rect x="0" y="0" fill="#fff" width="1341.7146478931436" height="781.6947263254506"></rect><rect x="633.1905784692444" y="458.2834878102585" fill="#000" width="122.53988647460938" height="100" opacity="1"></rect></mask><g transform="translate(633.1905784692444 458.2834878102585) rotate(0 60.92480647414868 50.70330572277635)"><text x="61.26994323730469" y="17.52" font-family="Virgil, Segoe UI Emoji" font-size="20px" fill="#1e1e1e" text-anchor="middle" style="white-space: pre;" direction="ltr" dominant-baseline="alphabetic">Pull</text><text x="61.26994323730469" y="42.519999999999996" font-family="Virgil, Segoe UI Emoji" font-size="20px" fill="#1e1e1e" text-anchor="middle" style="white-space: pre;" direction="ltr" dominant-baseline="alphabetic">Images</text><text x="61.26994323730469" y="67.52" font-family="Virgil, Segoe UI Emoji" font-size="20px" fill="#1e1e1e" text-anchor="middle" style="white-space: pre;" direction="ltr" dominant-baseline="alphabetic">from Remote</text><text x="61.26994323730469" y="92.52" font-family="Virgil, Segoe UI Emoji" font-size="20px" fill="#1e1e1e" text-anchor="middle" style="white-space: pre;" direction="ltr" dominant-baseline="alphabetic">Registry</text></g><g stroke-linecap="round" transform="translate(886.85056876411 521.1778126254212) rotate(0 138.01418185493685 49.167257359998985)"><path d="M24.58 0 C72.21 2.42, 117.84 2, 251.44 0 M24.58 0 C91.67 -1.14, 159.53 -2.05, 251.44 0 M251.44 0 C268.87 -1.64, 277.5 7.02, 276.03 24.58 M251.44 0 C269.73 -0.73, 278.13 9.75, 276.03 24.58 M276.03 24.58 C276.9 35.64, 277.92 47.35, 276.03 73.75 M276.03 24.58 C275.5 34.53, 275.76 45.85, 276.03 73.75 M276.03 73.75 C276.66 90.96, 267.82 98.82, 251.44 98.33 M276.03 73.75 C274.17 88.18, 267.71 98, 251.44 98.33 M251.44 98.33 C193.2 98.91, 131.17 99.8, 24.58 98.33 M251.44 98.33 C201.97 99.19, 152.32 99.86, 24.58 98.33 M24.58 98.33 C8.47 100.11, -0.61 90.24, 0 73.75 M24.58 98.33 C6.41 97.95, -2.21 91.58, 0 73.75 M0 73.75 C0.31 60.18, -2.04 45.46, 0 24.58 M0 73.75 C-0.19 57.77, -0.19 41.27, 0 24.58 M0 24.58 C1.04 7.95, 7.82 -1.81, 24.58 0 M0 24.58 C1.04 10.2, 6.84 2.03, 24.58 0" stroke="#1e1e1e" stroke-width="2" fill="none"></path></g><g transform="translate(944.4948165370151 545.3450699854184) rotate(0 80.36993408203125 25)"><text x="80.36993408203125" y="17.52" font-family="Virgil, Segoe UI Emoji" font-size="20px" fill="#1971c2" text-anchor="middle" style="white-space: pre;" direction="ltr" dominant-baseline="alphabetic">OCI Registry</text><text x="80.36993408203125" y="42.519999999999996" font-family="Virgil, Segoe UI Emoji" font-size="20px" fill="#1971c2" text-anchor="middle" style="white-space: pre;" direction="ltr" dominant-baseline="alphabetic">Proxy Mode Only</text></g><g stroke-linecap="round" transform="translate(951.8036440322157 672.5781605327829) rotate(0 75.56207756189724 37.933706265552246)"><path d="M18.97 0 C56.8 0.03, 96.27 -0.14, 132.16 0 M132.16 0 C145.47 1.76, 149.67 7.36, 151.12 18.97 M151.12 18.97 C153.05 26.61, 153.23 36.87, 151.12 56.9 M151.12 56.9 C149.79 70.93, 144.81 76.4, 132.16 75.87 M132.16 75.87 C98.72 74.27, 69.28 75.43, 18.97 75.87 M18.97 75.87 C5.74 76.06, 1.56 70.18, 0 56.9 M0 56.9 C-1.61 42.26, -0.1 30.74, 0 18.97 M0 18.97 C-0.77 5.46, 6.84 1.21, 18.97 0" stroke="#1971c2" stroke-width="2.5" fill="none" stroke-dasharray="8 10"></path></g><g transform="translate(996.5457524168669 698.011866798337) rotate(0 30.819969177246094 12.5)"><text x="30.819969177246094" y="17.52" font-family="Virgil, Segoe UI Emoji" font-size="20px" fill="#1971c2" text-anchor="middle" style="white-space: pre;" direction="ltr" dominant-baseline="alphabetic">Volume</text></g><g stroke-linecap="round"><g transform="translate(1021.7709640785752 634.5014985611379) rotate(0 -1.3700550562489298 18.294423969931813)"><path d="M-0.01 0.18 C-0.39 6.15, -1.85 30.2, -2.25 36.19 M-0.68 -0.2 C-1.09 5.79, -2.11 30.57, -2.44 36.68" stroke="#1971c2" stroke-width="2" fill="none"></path></g></g><mask></mask><g mask="url(#mask-NdeH-q0W9JdHbz1xRrgcm)" stroke-linecap="round"><g transform="translate(1023.0088137877065 373.3864714362244) rotate(0 -0.6648538386693872 71.91009539627157)"><path d="M1.06 -0.87 C0.94 22.87, -0.45 118.84, -0.71 142.84" stroke="#1971c2" stroke-width="2.5" fill="none" stroke-dasharray="8 10"></path></g><g transform="translate(1023.0088137877065 373.3864714362244) rotate(0 -0.6648538386693872 71.91009539627157)"><path d="M-8.96 119.24 C-7.87 127.25, -5.59 134.73, -0.71 142.84" stroke="#1971c2" stroke-width="2.5" fill="none"></path></g><g transform="translate(1023.0088137877065 373.3864714362244) rotate(0 -0.6648538386693872 71.91009539627157)"><path d="M8.14 119.46 C4.13 127.55, 1.3 134.97, -0.71 142.84" stroke="#1971c2" stroke-width="2.5" fill="none"></path></g></g><mask id="mask-NdeH-q0W9JdHbz1xRrgcm"><rect x="0" y="0" fill="#fff" width="1124.3385214650452" height="617.2066622287657"></rect><rect x="939.6740380740375" y="432.7965668324978" fill="#000" width="165.33984375" height="25" opacity="1"></rect></mask><g transform="translate(939.6740380740375 432.7965668324978) rotate(0 83.51120283454611 11.573198272284571)"><text x="82.669921875" y="17.52" font-family="Virgil, Segoe UI Emoji" font-size="20px" fill="#1971c2" text-anchor="middle" style="white-space: pre;" direction="ltr" dominant-baseline="alphabetic">Set Proxy Config</text></g><g stroke-linecap="round"><g transform="translate(1028.3594481302662 413.80484214955504) rotate(0 -1.0076053983898419 12.993390826068207)"><path d="M0.29 -0.45 C-0.06 3.89, -1.3 21.29, -1.61 25.66" stroke="#1971c2" stroke-width="2.5" fill="none" stroke-dasharray="8 10"></path></g><g transform="translate(1028.3594481302662 413.80484214955504) rotate(0 -1.0076053983898419 12.993390826068207)"><path d="M-5.19 13.13 C-4.38 18.47, -2.84 23.39, -1.61 25.66" stroke="#1971c2" stroke-width="2.5" fill="none"></path></g><g transform="translate(1028.3594481302662 413.80484214955504) rotate(0 -1.0076053983898419 12.993390826068207)"><path d="M3.7 13.76 C1.06 18.88, -0.85 23.56, -1.61 25.66" stroke="#1971c2" stroke-width="2.5" fill="none"></path></g></g><mask></mask><g stroke-linecap="round" transform="translate(854.5128197524245 278.27367904815037) rotate(0 172.12287368803482 186.2432281277288)"><path d="M32 0 C136.22 -0.37, 242.45 -2.79, 312.25 0 M312.25 0 C334.97 0.01, 344.78 10.25, 344.25 32 M344.25 32 C342.96 148.68, 343.8 264.48, 344.25 340.49 M344.25 340.49 C344.44 363.38, 334.22 373.31, 312.25 372.49 M312.25 372.49 C227.04 370.67, 144.21 370.16, 32 372.49 M32 372.49 C9.81 373.01, 1.21 361.9, 0 340.49 M0 340.49 C-0.88 279.24, -1.57 216.5, 0 32 M0 32 C-1.33 12.06, 10.94 1.78, 32 0" stroke="#1971c2" stroke-width="2.5" fill="none" stroke-dasharray="1.5 8"></path></g><g stroke-linecap="round"><g transform="translate(1174.770341638451 558.2551486465418) rotate(0 159.07136012750334 -156.94778855742334)"><path d="M1.1 0.81 C53.82 -51.3, 264.5 -260.66, 317.34 -313.06" stroke="#868e96" stroke-width="1.5" fill="none" stroke-dasharray="1.5 7"></path></g></g><mask></mask><g stroke-linecap="round" transform="translate(1449.319497244017 104.23916475942679) rotate(0 106.26510897504568 61.02648729789507)"><path d="M0.08 -1.98 L213.65 -1.66 L213.03 123.01 L-0.46 121.88" stroke="none" stroke-width="0" fill="#b2f2bb"></path><path d="M0 0 C84.4 1.25, 166.82 0.88, 212.53 0 M212.53 0 C210.93 46.4, 212.08 91.56, 212.53 122.05 M212.53 122.05 C147.47 122.64, 81.39 121.23, 0 122.05 M0 122.05 C-0.71 94.96, 0.59 70.79, 0 0" stroke="#40c057" stroke-width="1.5" fill="none" stroke-dasharray="8 9"></path></g><g transform="translate(1459.9203377254107 121.26565205732186) rotate(0 95.66426849365234 44)"><text x="95.66426849365234" y="15.84816002179152" font-family="Virgil, Segoe UI Emoji" font-size="16.44876999520984px" fill="#40c057" text-anchor="middle" style="white-space: pre;" direction="ltr" dominant-baseline="alphabetic">same network, intra or </text><text x="95.66426849365234" y="37.84816002179152" font-family="Virgil, Segoe UI Emoji" font-size="16.44876999520984px" fill="#40c057" text-anchor="middle" style="white-space: pre;" direction="ltr" dominant-baseline="alphabetic">extra consumer, </text><text x="95.66426849365234" y="59.84816002179152" font-family="Virgil, Segoe UI Emoji" font-size="16.44876999520984px" fill="#40c057" text-anchor="middle" style="white-space: pre;" direction="ltr" dominant-baseline="alphabetic">seperate  binary.</text><text x="95.66426849365234" y="81.84816002179151" font-family="Virgil, Segoe UI Emoji" font-size="16.44876999520984px" fill="#40c057" text-anchor="middle" style="white-space: pre;" direction="ltr" dominant-baseline="alphabetic">Statefull</text></g><g stroke-linecap="round" transform="translate(1225.955536403646 104.23916475942679) rotate(0 93.03300171850469 52.09736512719792)"><path d="M0.5 0.96 L185.6 -0.17 L184.74 105.59 L0.28 105.97" stroke="none" stroke-width="0" fill="#a5d8ff"></path><path d="M0 0 C57.42 0.2, 109.91 -1.1, 186.07 0 M186.07 0 C186.08 34.49, 186.53 66.69, 186.07 104.19 M186.07 104.19 C128.66 102.59, 74.36 101.92, 0 104.19 M0 104.19 C-0.19 75.42, 0.84 48.96, 0 0" stroke="#228be6" stroke-width="1.5" fill="none" stroke-dasharray="8 9"></path></g><g transform="translate(1279.1380132198065 145.33652988662652) rotate(0 39.85052490234375 11)"><text x="39.85052490234375" y="15.84816002179152" font-family="Virgil, Segoe UI Emoji" font-size="16.44876999520984px" fill="#228be6" text-anchor="middle" style="white-space: pre;" direction="ltr" dominant-baseline="alphabetic">Stateless</text></g><g stroke-linecap="round"><g transform="translate(1172.1962553021876 324.84139353076534) rotate(0 64.47324645607887 -52.52493475709343)"><path d="M-0.89 0.19 C20.58 -17.19, 107.09 -88.02, 128.75 -105.4" stroke="#868e96" stroke-width="1.5" fill="none" stroke-dasharray="1.5 7"></path></g></g><mask></mask><g stroke-linecap="round" transform="translate(1678.8339398696435 463.99081406230107) rotate(0 157.8359729014992 63.415515101340134)"><path d="M31.71 0 C81.87 -8.87, 132.89 -4.54, 283.96 0 C306.22 -2.14, 310.42 16.13, 315.67 31.71 C311.88 44.39, 318.19 62.97, 315.67 95.12 C320.03 117.84, 307.43 126.26, 283.96 126.83 C215.02 129.91, 155.04 133.33, 31.71 126.83 C11.15 121.34, 2.67 119.73, 0 95.12 C4.78 71.52, -1.35 47.49, 0 31.71 C-0.1 11.76, 8.02 4.61, 31.71 0" stroke="none" stroke-width="0" fill="#b2f2bb"></path><path d="M31.71 0 C129.28 -2.94, 230.95 -2.53, 283.96 0 M31.71 0 C121.72 -0.43, 213.67 -1.51, 283.96 0 M283.96 0 C302.98 3.43, 315.17 11.99, 315.67 31.71 M283.96 0 C302.73 1.94, 313.98 12.99, 315.67 31.71 M315.67 31.71 C312.41 48.81, 317.91 65.21, 315.67 95.12 M315.67 31.71 C313.58 53.39, 314.83 78.97, 315.67 95.12 M315.67 95.12 C312.17 119.72, 301.29 126.21, 283.96 126.83 M315.67 95.12 C320.13 112.56, 303.51 125.51, 283.96 126.83 M283.96 126.83 C190.59 126.47, 99.78 123.58, 31.71 126.83 M283.96 126.83 C210.97 125.41, 139.48 126.56, 31.71 126.83 M31.71 126.83 C6.64 128.57, -0.2 113.34, 0 95.12 M31.71 126.83 C14.36 124, -3.13 113.54, 0 95.12 M0 95.12 C-4.8 70.93, 2.57 55.83, 0 31.71 M0 95.12 C2.36 75.18, -1.28 57.05, 0 31.71 M0 31.71 C-0.66 7.26, 11.85 -0.26, 31.71 0 M0 31.71 C1.51 8.26, 10.39 3.77, 31.71 0" stroke="#2f9e44" stroke-width="1" fill="none"></path></g><g transform="translate(1722.5579819239747 507.4063291636412) rotate(0 114.11193084716797 20)"><text x="114.11193084716797" y="14.016" font-family="Virgil, Segoe UI Emoji" font-size="16px" fill="#2f9e44" text-anchor="middle" style="white-space: pre;" direction="ltr" dominant-baseline="alphabetic">Image Runtimes</text><text x="114.11193084716797" y="34.016" font-family="Virgil, Segoe UI Emoji" font-size="16px" fill="#2f9e44" text-anchor="middle" style="white-space: pre;" direction="ltr" dominant-baseline="alphabetic">(e.g. K8s, Container Runtime)</text></g><g stroke-linecap="round"><g transform="translate(1656.5333840275935 536.7588900220653) rotate(0 -240.60949549472934 18.257528897162047)"><path d="M0.38 0.49 C-79.84 6.47, -400.8 30.97, -481.23 36.81" stroke="#69db7c" stroke-width="2.5" fill="none" stroke-dasharray="8 10"></path></g><g transform="translate(1656.5333840275935 536.7588900220653) rotate(0 -240.60949549472934 18.257528897162047)"><path d="M-458.44 26.53 C-464.59 29.77, -471.98 31.35, -481.23 36.81" stroke="#69db7c" stroke-width="2.5" fill="none"></path></g><g transform="translate(1656.5333840275935 536.7588900220653) rotate(0 -240.60949549472934 18.257528897162047)"><path d="M-457.16 43.58 C-463.84 41.55, -471.62 37.85, -481.23 36.81" stroke="#69db7c" stroke-width="2.5" fill="none"></path></g></g><mask></mask><g stroke-linecap="round" transform="translate(1708.9089351841694 105.6340308894396) rotate(0 169.3847217530315 65)"><path d="M0 0 L338.77 0 L338.77 130 L0 130" stroke="none" stroke-width="0" fill="#ffec99"></path><path d="M0 0 C112.41 0, 224.83 0, 338.77 0 M338.77 0 C338.77 37.13, 338.77 74.27, 338.77 130 M338.77 130 C218.25 130, 97.73 130, 0 130 M0 130 C0 81.96, 0 33.92, 0 0" stroke="#fab005" stroke-width="1.5" fill="none" stroke-dasharray="8 9"></path></g><g transform="translate(1713.9089351841694 110.6340308894396) rotate(0 149.74391174316406 60)"><text x="0" y="14.016" font-family="Virgil, Segoe UI Emoji" font-size="16px" fill="#fab005" text-anchor="start" style="white-space: pre;" direction="ltr" dominant-baseline="alphabetic">Consumer Configuration</text><text x="0" y="34.016" font-family="Virgil, Segoe UI Emoji" font-size="16px" fill="#fab005" text-anchor="start" style="white-space: pre;" direction="ltr" dominant-baseline="alphabetic"></text><text x="0" y="54.016" font-family="Virgil, Segoe UI Emoji" font-size="16px" fill="#fab005" text-anchor="start" style="white-space: pre;" direction="ltr" dominant-baseline="alphabetic">1.  containerD/CRI-O Mirror Config</text><text x="0" y="74.016" font-family="Virgil, Segoe UI Emoji" font-size="16px" fill="#fab005" text-anchor="start" style="white-space: pre;" direction="ltr" dominant-baseline="alphabetic">2. HTTP Proxy</text><text x="0" y="94.016" font-family="Virgil, Segoe UI Emoji" font-size="16px" fill="#fab005" text-anchor="start" style="white-space: pre;" direction="ltr" dominant-baseline="alphabetic">3. Direct Reference </text><text x="0" y="114.016" font-family="Virgil, Segoe UI Emoji" font-size="16px" fill="#fab005" text-anchor="start" style="white-space: pre;" direction="ltr" dominant-baseline="alphabetic">3.5 Direct Ref. via Mutating Webhook</text></g><g stroke-linecap="round"><g transform="translate(1856.8034848650877 256.50337234453764) rotate(0 -1.5930629475369642 96.44143506910223)"><path d="M-0.06 -0.17 C-0.51 32.06, -3.18 160.07, -3.65 192.37" stroke="#868e96" stroke-width="1.5" fill="none" stroke-dasharray="1.5 7"></path></g></g><mask></mask><g stroke-linecap="round" transform="translate(1690.3011447504587 592.9071515292417) rotate(0 148.44130620510123 40.3603883495507)"><path d="M20.18 0 C114.27 0.49, 209.65 3.32, 276.7 0 C286.66 -4.94, 297.24 6.58, 296.88 20.18 C293.75 40.32, 291.22 55.88, 296.88 60.54 C294.14 72.76, 295.2 82.65, 276.7 80.72 C186.68 84.27, 93.11 81.26, 20.18 80.72 C9.07 82.32, 1.55 71.02, 0 60.54 C-4.35 45.08, -5.67 37.31, 0 20.18 C-4.98 11.08, 1.79 3.57, 20.18 0" stroke="none" stroke-width="0" fill="#96f2d7"></path><path d="M20.18 0 C79.04 1.57, 143.4 0.84, 276.7 0 M20.18 0 C87.93 -2.06, 153.99 -0.56, 276.7 0 M276.7 0 C287.23 3.3, 294.42 4.01, 296.88 20.18 M276.7 0 C287.43 1.76, 301.24 5.45, 296.88 20.18 M296.88 20.18 C299.95 28.82, 294.31 40.89, 296.88 60.54 M296.88 20.18 C297.1 35.43, 294.96 51.98, 296.88 60.54 M296.88 60.54 C296.62 75.31, 288.15 80.56, 276.7 80.72 M296.88 60.54 C300.66 69.78, 287.1 84.54, 276.7 80.72 M276.7 80.72 C213.51 77.75, 148.77 74.09, 20.18 80.72 M276.7 80.72 C172.78 80.13, 71.68 81.95, 20.18 80.72 M20.18 80.72 C10.25 83.83, 1.13 75.66, 0 60.54 M20.18 80.72 C6.26 78.93, -2.32 75.91, 0 60.54 M0 60.54 C3.49 51.57, -4.05 43.67, 0 20.18 M0 60.54 C-1.5 47.06, -0.28 30.27, 0 20.18 M0 20.18 C1.54 6.65, 7.58 -1.82, 20.18 0 M0 20.18 C3.79 8.43, 10.46 4.29, 20.18 0" stroke="#099268" stroke-width="2" fill="none"></path></g><g transform="translate(1714.1185190707938 623.2675398787942) rotate(0 124.62393188476562 10)"><text x="124.62393188476562" y="14.016" font-family="Virgil, Segoe UI Emoji" font-size="16px" fill="#099268" text-anchor="middle" style="white-space: pre;" direction="ltr" dominant-baseline="alphabetic">Container Runtime Configuration</text></g><g mask="url(#mask-QFnqsP0jKY80o1tWxYk65)" stroke-linecap="round"><g transform="translate(1168.9817979052104 365.6043734513478) rotate(0 253.85217308203164 130.93129757899806)"><path d="M0.05 -1.19 C84.73 42.17, 423.71 216.93, 508.37 260.87" stroke="#2f9e44" stroke-width="2.5" fill="none" stroke-dasharray="8 10"></path></g><g transform="translate(1168.9817979052104 365.6043734513478) rotate(0 253.85217308203164 130.93129757899806)"><path d="M483.58 257.68 C489.7 259.82, 498.11 260.25, 508.37 260.87" stroke="#2f9e44" stroke-width="2.5" fill="none"></path></g><g transform="translate(1168.9817979052104 365.6043734513478) rotate(0 253.85217308203164 130.93129757899806)"><path d="M491.43 242.49 C495.08 249.59, 500.94 254.97, 508.37 260.87" stroke="#2f9e44" stroke-width="2.5" fill="none"></path></g></g><mask id="mask-QFnqsP0jKY80o1tWxYk65"><rect x="0" y="0" fill="#fff" width="1776.6861440692737" height="727.4669686093439"></rect><rect x="1348.6580142611674" y="456.53567103034584" fill="#000" width="148.35191345214844" height="80" opacity="1"></rect></mask><g transform="translate(1348.6580142611674 456.53567103034584) rotate(0 74.53478309959246 38.90787606388221)"><text x="74.17595672607422" y="14.016" font-family="Virgil, Segoe UI Emoji" font-size="16px" fill="#2f9e44" text-anchor="middle" style="white-space: pre;" direction="ltr" dominant-baseline="alphabetic">Update of Runtime</text><text x="74.17595672607422" y="34.016" font-family="Virgil, Segoe UI Emoji" font-size="16px" fill="#2f9e44" text-anchor="middle" style="white-space: pre;" direction="ltr" dominant-baseline="alphabetic">Configuration with </text><text x="74.17595672607422" y="54.016" font-family="Virgil, Segoe UI Emoji" font-size="16px" fill="#2f9e44" text-anchor="middle" style="white-space: pre;" direction="ltr" dominant-baseline="alphabetic">local mirror host</text><text x="74.17595672607422" y="74.016" font-family="Virgil, Segoe UI Emoji" font-size="16px" fill="#2f9e44" text-anchor="middle" style="white-space: pre;" direction="ltr" dominant-baseline="alphabetic">(Optional)</text></g><g stroke-linecap="round" transform="translate(224.89203468843334 157.65584648229924) rotate(0 133.28438097325716 50)"><path d="M25 0 C102.88 -0.88, 178.95 -1.63, 241.57 0 M25 0 C104.76 -1.64, 184.39 -1.83, 241.57 0 M241.57 0 C256.32 1.25, 266.37 8.68, 266.57 25 M241.57 0 C259.16 0.45, 267.36 6.09, 266.57 25 M266.57 25 C265.05 40.24, 266.34 55.82, 266.57 75 M266.57 25 C266.64 34.86, 267.28 47.4, 266.57 75 M266.57 75 C265.39 93.43, 256.68 98.05, 241.57 100 M266.57 75 C265.14 91.81, 257.59 100.53, 241.57 100 M241.57 100 C181.51 100.28, 119.9 100.5, 25 100 M241.57 100 C180.76 101.89, 119.19 102.23, 25 100 M25 100 C6.42 101.12, 1.49 90.3, 0 75 M25 100 C7.6 101.21, 0.19 91.56, 0 75 M0 75 C0.01 63.21, -0.66 52.83, 0 25 M0 75 C0.67 56.83, 0.99 37.62, 0 25 M0 25 C-0.36 9.36, 10.15 -0.43, 25 0 M0 25 C0.96 8.5, 6.87 0.7, 25 0" stroke="#099268" stroke-width="4" fill="none"></path></g><g transform="translate(284.63647578131895 195.15584648229924) rotate(0 73.5399398803711 12.5)"><text x="73.5399398803711" y="17.52" font-family="Virgil, Segoe UI Emoji" font-size="20px" fill="#099268" text-anchor="middle" style="white-space: pre;" direction="ltr" dominant-baseline="alphabetic">Ground Control</text></g><g stroke-linecap="round"><g transform="translate(358.7142155376432 266.8949713756592) rotate(0 0.0021822891249030363 54.08803595902282)"><path d="M0 0 C0 18.03, 0 90.15, 0 108.18" stroke="#1971c2" stroke-width="2.5" fill="none" stroke-dasharray="8 10"></path></g><g transform="translate(358.7142155376432 266.8949713756592) rotate(0 0.0021822891249030363 54.08803595902282)"><path d="M-8.55 84.68 C-6.18 91.19, -3.81 97.69, 0 108.18" stroke="#1971c2" stroke-width="2.5" fill="none"></path></g><g transform="translate(358.7142155376432 266.8949713756592) rotate(0 0.0021822891249030363 54.08803595902282)"><path d="M8.55 84.68 C6.19 91.19, 3.82 97.69, 0 108.18" stroke="#1971c2" stroke-width="2.5" fill="none"></path></g></g><mask></mask><g stroke-linecap="round"><g transform="translate(10 884.3595287229327) rotate(0 353.4852489217619 -0.5780785255446972)"><path d="M0 0 C117.83 -0.19, 589.14 -0.96, 706.97 -1.16" stroke="#1971c2" stroke-width="4.5" fill="none" stroke-dasharray="8 12"></path></g></g><mask></mask><g stroke-linecap="round"><g transform="translate(1210.6506666171954 886.3759696937959) rotate(0 392.00459549401694 -1.191529862158859)"><path d="M0 0 C130.67 -0.4, 653.34 -1.99, 784.01 -2.38" stroke="#1971c2" stroke-width="4.5" fill="none" stroke-dasharray="8 12"></path></g></g><mask></mask><g stroke-linecap="round"><g transform="translate(801.9867636951294 887.2790819763686) rotate(0 177.19751235830972 -0.4473692705905705)"><path d="M0 0 C59.07 -0.15, 295.33 -0.75, 354.4 -0.89" stroke="#1971c2" stroke-width="4.5" fill="none" stroke-dasharray="8 12"></path></g></g><mask></mask><g stroke-linecap="round"><g transform="translate(817.7131734930208 60.793462810521305) rotate(0 0.8003927390468561 387.41106977794334)"><path d="M0 0 C0.27 129.14, 1.33 645.69, 1.6 774.82" stroke="#846358" stroke-width="4.5" fill="none" stroke-dasharray="1.5 10"></path></g></g><mask></mask><g transform="translate(669.7993962269302 10) rotate(0 156.00595092773438 22.5)"><text x="0" y="31.536" font-family="Virgil, Segoe UI Emoji" font-size="36px" fill="#846358" text-anchor="start" style="white-space: pre;" direction="ltr" dominant-baseline="alphabetic">Network Boundery</text></g><g stroke-linecap="round"><g transform="translate(1210.7285745165955 90.60703308479788) rotate(0 0.8003927390468561 387.41106977794334)"><path d="M0 0 C0.27 129.14, 1.33 645.69, 1.6 774.82" stroke="#846358" stroke-width="4.5" fill="none" stroke-dasharray="1.5 10"></path></g></g><mask></mask><g transform="translate(1056.4678909897493 43.69007860281636) rotate(0 171.12594604492188 22.5)"><text x="0" y="31.536" font-family="Virgil, Segoe UI Emoji" font-size="36px" fill="#846358" text-anchor="start" style="white-space: pre;" direction="ltr" dominant-baseline="alphabetic">Network Bounderies</text></g></svg>