<svg version="1.1" xmlns="http://www.w3.org/2000/svg" viewBox="0 0 2000.8489305671083 1166.586005551715" width="2000.8489305671083" height="1166.586005551715">
  <!-- svg-source:excalidraw -->
  
  <defs>
    <style class="style-fonts">
      @font-face {
        font-family: "Virgil";
        src: url("https://excalidraw.com/Virgil.woff2");
      }
      @font-face {
        font-family: "Cascadia";
        src: url("https://excalidraw.com/Cascadia.woff2");
      }
      @font-face {
        font-family: "Assistant";
        src: url("https://excalidraw.com/Assistant-Regular.woff2");
      }
    </style>
    
  </defs>
  <g stroke-linecap="round"><g transform="translate(1179.9335064633615 568.5729943946462) rotate(0 157.0605083605169 -179.9355045079319)"><path d="M-0.86 -0.24 C51.34 -60.34, 260.51 -299.75, 313.04 -359.82" stroke="#868e96" stroke-width="1.5" fill="none" stroke-dasharray="1.5 7"></path></g></g><mask></mask><g stroke-linecap="round"><g transform="translate(995.1103200048947 791.9393009183368) rotate(0 203.4183823059875 21.030714207779965)"><path d="M-1.08 0.05 C66.91 6.97, 339.16 34.42, 407.08 41.28 M0.56 -0.97 C68.48 6.11, 338.78 35.24, 406.26 42.4" stroke="#1e1e1e" stroke-width="1" fill="none"></path></g></g><mask></mask><g stroke-linecap="round" transform="translate(1414.2739177678486 779.1127226135723) rotate(0 45.280472681183255 49.36951048516494)"><path d="M37.6 0 C45.42 -2.21, 56.79 -0.28, 64.24 3.25 C71.69 6.77, 78.03 13.56, 82.28 21.14 C86.53 28.73, 89.59 39.81, 89.72 48.77 C89.86 57.73, 87.24 67.35, 83.1 74.89 C78.95 82.44, 72.15 90.09, 64.85 94.03 C57.55 97.97, 47.55 99.57, 39.3 98.53 C31.04 97.48, 21.46 93.52, 15.32 87.78 C9.18 82.04, 4.82 72.57, 2.47 64.1 C0.12 55.63, -0.73 45.63, 1.22 36.94 C3.17 28.24, 7.48 17.91, 14.18 11.94 C20.88 5.97, 36.63 2.99, 41.41 1.13 C46.2 -0.73, 42.78 0.26, 42.88 0.77 M41.14 -0.66 C48.5 -2.39, 57 0.71, 64.44 5 C71.89 9.29, 81.5 17.27, 85.8 25.09 C90.11 32.91, 90.67 43.38, 90.29 51.93 C89.91 60.48, 88.34 69.28, 83.51 76.39 C78.69 83.51, 68.91 91.25, 61.35 94.61 C53.79 97.97, 46.07 97.87, 38.15 96.54 C30.22 95.21, 20.11 92.54, 13.79 86.64 C7.47 80.73, 1.99 69.79, 0.21 61.12 C-1.56 52.45, 0.36 42.85, 3.14 34.6 C5.92 26.35, 10.49 17.43, 16.88 11.63 C23.27 5.82, 37.58 1.51, 41.48 -0.21 C45.37 -1.92, 40.33 0.43, 40.25 1.32" stroke="#1e1e1e" stroke-width="2" fill="none"></path></g><g stroke-linecap="round"><g transform="translate(965.9049973620622 740.8919305675372) rotate(0 63.14787861897548 -40.10737029956181)"><path d="M-0.39 -0.89 C20.66 -14.21, 105.54 -67.69, 126.52 -80.74 M1.61 1.26 C22.5 -11.83, 104.63 -65.77, 125.69 -79.47" stroke="#1e1e1e" stroke-width="2" fill="none"></path></g></g><mask></mask><g stroke-linecap="round" transform="translate(887.9512241657358 736.7556047663275) rotate(0 49.221286181682444 50.21207827151011)"><path d="M27.97 4.81 C34.76 0.91, 44.91 -0.96, 53.22 -0.19 C61.53 0.59, 71.08 4.5, 77.82 9.46 C84.56 14.42, 90.42 21.87, 93.66 29.55 C96.91 37.23, 97.95 47.24, 97.29 55.54 C96.63 63.84, 94.37 72.51, 89.69 79.34 C85.02 86.17, 76.92 93.16, 69.25 96.52 C61.58 99.88, 51.67 100.25, 43.68 99.49 C35.68 98.73, 27.93 96.76, 21.27 91.98 C14.61 87.2, 7.1 78.71, 3.73 70.8 C0.35 62.88, 0.16 52.74, 1.03 44.49 C1.9 36.25, 3.25 28.33, 8.94 21.34 C14.63 14.35, 29.93 5.98, 35.15 2.57 C40.38 -0.85, 40.17 -0.04, 40.29 0.87 M61.74 0.01 C69.35 0.97, 75.99 7.48, 81.95 13.22 C87.91 18.95, 95.06 26.12, 97.51 34.43 C99.96 42.74, 98.92 54.75, 96.65 63.09 C94.38 71.43, 89.32 78.4, 83.89 84.45 C78.46 90.5, 71.79 96.8, 64.09 99.38 C56.4 101.95, 45.68 102.11, 37.71 99.93 C29.74 97.74, 22.28 92.15, 16.25 86.28 C10.23 80.41, 4.07 72.64, 1.56 64.7 C-0.95 56.76, -0.97 46.58, 1.21 38.64 C3.39 30.69, 8.99 23.23, 14.66 17.01 C20.33 10.8, 27.33 4.18, 35.23 1.34 C43.13 -1.49, 57.92 -0.07, 62.05 0.02 C66.18 0.12, 60.69 0.67, 60.01 1.91" stroke="#1e1e1e" stroke-width="2" fill="none"></path></g><g transform="translate(914.7910457712478 771.6069850447966) rotate(0 22.576759338378906 15.355396949787973)"><text x="22.576759338378906" y="10.76106218241081" font-family="Virgil, Segoe UI Emoji" font-size="12.284317559829693px" fill="#000000" text-anchor="middle" style="white-space: pre;" direction="ltr" dominant-baseline="alphabetic">CR</text><text x="22.576759338378906" y="26.116459132197928" font-family="Virgil, Segoe UI Emoji" font-size="12.284317559829693px" fill="#000000" text-anchor="middle" style="white-space: pre;" direction="ltr" dominant-baseline="alphabetic">Runtime</text></g><g stroke-linecap="round" transform="translate(1100.8540719438824 590.1897771679651) rotate(0 36.88898969482034 39.90717976075939)"><path d="M42.11 0.53 C49.04 1.14, 57.18 5.91, 62.21 11.42 C67.24 16.93, 70.93 25.9, 72.3 33.57 C73.67 41.24, 73.5 50.4, 70.41 57.44 C67.32 64.47, 60.35 72.25, 53.76 75.8 C47.17 79.34, 37.84 79.77, 30.86 78.71 C23.87 77.65, 17.02 74.82, 11.85 69.45 C6.68 64.09, 1.05 54.53, -0.16 46.52 C-1.37 38.52, 1.3 28.37, 4.56 21.44 C7.83 14.5, 12.83 8.33, 19.42 4.92 C26.01 1.51, 39.94 1.65, 44.08 0.98 C48.23 0.31, 44.52 0.13, 44.29 0.9 M46.56 -0.27 C53.22 0.75, 59.12 7.51, 63.82 13.43 C68.53 19.36, 74.1 27.19, 74.79 35.28 C75.48 43.37, 72.07 55.09, 67.94 61.96 C63.8 68.83, 56.44 73.54, 49.97 76.52 C43.51 79.49, 36.01 81.43, 29.14 79.8 C22.27 78.18, 13.44 72.96, 8.74 66.77 C4.04 60.59, 1.57 50.62, 0.93 42.7 C0.28 34.78, 1.26 25.85, 4.86 19.24 C8.47 12.64, 15.59 5.9, 22.55 3.08 C29.51 0.26, 42.84 2.66, 46.64 2.32 C50.44 1.99, 45.46 0.87, 45.36 1.08" stroke="#1e1e1e" stroke-width="2" fill="none"></path></g><g stroke-linecap="round" transform="translate(1141.199498999571 575.3274776008402) rotate(0 24.647031602062725 21)"><path d="M23.72 -0.44 C28.73 -0.92, 35.3 1.09, 39.41 3.81 C43.52 6.54, 47.26 11.36, 48.38 15.9 C49.5 20.43, 48.46 27, 46.14 31.01 C43.83 35.01, 39.29 38.28, 34.49 39.9 C29.68 41.52, 22.35 41.9, 17.31 40.72 C12.27 39.54, 7.08 36.49, 4.23 32.8 C1.39 29.1, -0.4 23.14, 0.24 18.54 C0.87 13.94, 4.07 8.38, 8.03 5.22 C12 2.06, 21.26 0.44, 24.04 -0.43 C26.81 -1.31, 24.69 -0.52, 24.68 -0.02 M30.3 0.03 C35.28 0.6, 41.89 4.17, 45.15 8 C48.42 11.82, 50.29 18.36, 49.88 23 C49.48 27.63, 46.6 32.54, 42.73 35.79 C38.85 39.04, 32.03 41.97, 26.62 42.49 C21.21 43, 14.48 41.49, 10.25 38.89 C6.02 36.28, 2.59 31.24, 1.25 26.85 C-0.1 22.45, 0.07 16.53, 2.16 12.51 C4.26 8.49, 9.08 4.66, 13.8 2.72 C18.53 0.77, 27.62 1.23, 30.5 0.85 C33.37 0.48, 31.08 0.27, 31.05 0.47" stroke="none" stroke-width="0" fill="#ffffff"></path><path d="M21.89 0.2 C26.77 -0.48, 33.52 1.35, 37.96 3.85 C42.4 6.35, 47.04 10.86, 48.54 15.2 C50.04 19.53, 49.22 25.8, 46.97 29.85 C44.72 33.9, 39.7 37.53, 35.04 39.52 C30.38 41.52, 24.11 42.87, 19 41.82 C13.89 40.77, 7.44 37.01, 4.35 33.22 C1.26 29.43, 0.05 23.53, 0.46 19.08 C0.87 14.64, 3.07 9.7, 6.81 6.55 C10.56 3.41, 20.23 1.31, 22.93 0.22 C25.63 -0.87, 23.04 -0.39, 23.01 0.01 M28.09 -0.53 C33.04 -0.38, 38.43 3.09, 42.05 6.35 C45.67 9.62, 49.46 14.45, 49.82 19.09 C50.18 23.73, 47.53 30.49, 44.19 34.19 C40.84 37.9, 34.8 40.31, 29.76 41.33 C24.73 42.34, 18.6 42.23, 13.96 40.3 C9.32 38.37, 4.02 34.01, 1.93 29.75 C-0.16 25.49, -0.05 19.12, 1.44 14.75 C2.92 10.37, 6.51 5.93, 10.85 3.5 C15.18 1.06, 24.58 0.52, 27.45 0.14 C30.32 -0.25, 28.1 0.9, 28.07 1.18" stroke="#a18072" stroke-width="2" fill="none"></path></g><g transform="translate(1155.7664546218439 586.478235195922) rotate(0 10.151992797851562 10)"><text x="10.151992797851562" y="14.016" font-family="Virgil, Segoe UI Emoji" font-size="16px" fill="#846358" text-anchor="middle" style="white-space: pre;" direction="ltr" dominant-baseline="alphabetic">SP</text></g><g stroke-linecap="round" transform="translate(1441.6215138637035 757.8993835379479) rotate(0 18.73983541573125 17.994815014353662)"><path d="M14.28 0.11 C17.82 -0.96, 23.25 -0.34, 26.78 1.52 C30.3 3.38, 33.74 7.75, 35.42 11.27 C37.11 14.79, 37.98 19.09, 36.9 22.64 C35.82 26.2, 32.29 30.34, 28.96 32.6 C25.63 34.86, 20.86 36.57, 16.91 36.21 C12.95 35.86, 8.02 33.41, 5.24 30.49 C2.47 27.57, 0.49 22.63, 0.26 18.7 C0.02 14.77, 1.35 10.01, 3.83 6.89 C6.32 3.76, 13.22 0.91, 15.18 -0.06 C17.14 -1.02, 15.49 0.68, 15.58 1.1 M22.72 -0.3 C26.66 0.33, 31.29 4.01, 33.8 7.12 C36.31 10.23, 38 14.5, 37.76 18.36 C37.51 22.21, 35.09 27.28, 32.32 30.24 C29.56 33.21, 24.99 35.61, 21.19 36.16 C17.4 36.7, 12.88 35.53, 9.55 33.5 C6.21 31.48, 2.56 27.56, 1.17 24.03 C-0.21 20.5, -0.16 15.87, 1.22 12.3 C2.6 8.73, 5.86 4.71, 9.44 2.61 C13.03 0.52, 20.59 0.18, 22.75 -0.25 C24.91 -0.69, 22.49 -0.28, 22.41 0.03" stroke="none" stroke-width="0" fill="#ffffff"></path><path d="M18.89 0.27 C22.77 0.15, 28.41 2, 31.45 4.58 C34.48 7.16, 36.63 12, 37.1 15.76 C37.56 19.52, 36.27 23.85, 34.24 27.14 C32.2 30.44, 28.69 34.3, 24.88 35.54 C21.08 36.78, 15.12 36.16, 11.4 34.57 C7.69 32.98, 4.47 29.38, 2.62 26.02 C0.76 22.67, -0.5 18.1, 0.3 14.43 C1.1 10.76, 4.19 6.47, 7.42 4 C10.65 1.53, 17.51 0.11, 19.69 -0.4 C21.86 -0.91, 20.41 0.58, 20.48 0.94 M19.92 -0.16 C23.73 -0.06, 29.73 1.74, 32.6 4.63 C35.48 7.51, 37.04 13.2, 37.18 17.14 C37.33 21.08, 35.7 25.13, 33.48 28.26 C31.27 31.39, 27.7 34.85, 23.9 35.92 C20.1 37, 14.31 36.47, 10.68 34.7 C7.05 32.94, 3.84 28.88, 2.13 25.31 C0.42 21.75, -0.58 17, 0.4 13.32 C1.38 9.64, 4.54 5.32, 7.99 3.22 C11.43 1.11, 18.98 1.23, 21.06 0.7 C23.14 0.17, 20.48 -0.04, 20.47 0.05" stroke="#a18072" stroke-width="2" fill="none"></path></g><g stroke-linecap="round" transform="translate(1086.7160937187546 979.1446688987453) rotate(0 43.01873555475004 38.037959776740536)"><path d="M47.12 0.12 C54.59 0.16, 62.98 4.47, 68.91 8.55 C74.84 12.63, 79.93 18.06, 82.71 24.57 C85.48 31.07, 87.28 40.8, 85.54 47.55 C83.8 54.31, 77.81 60.6, 72.28 65.08 C66.74 69.56, 59.86 72.96, 52.35 74.41 C44.83 75.85, 34.46 76.04, 27.19 73.76 C19.92 71.47, 13.33 66.44, 8.71 60.7 C4.09 54.96, 0.02 46.05, -0.54 39.32 C-1.1 32.58, 1.35 26.14, 5.35 20.29 C9.34 14.45, 15.84 7.39, 23.43 4.23 C31.01 1.07, 45.91 1.84, 50.85 1.36 C55.79 0.88, 53.31 0.72, 53.07 1.34 M22.88 3.7 C29.42 0.3, 40.78 0.35, 48.65 1.31 C56.51 2.26, 64.05 5.35, 70.06 9.43 C76.08 13.51, 82.39 19.41, 84.73 25.8 C87.07 32.19, 86.24 41.06, 84.12 47.77 C82 54.48, 77.42 61.21, 72.01 66.04 C66.59 70.88, 59.22 75.72, 51.62 76.77 C44.03 77.81, 33.53 75.41, 26.43 72.32 C19.33 69.22, 13.47 63.79, 9.01 58.2 C4.55 52.6, 0.41 45.15, -0.3 38.72 C-1.02 32.29, 0.92 25.42, 4.74 19.6 C8.56 13.78, 19.53 6.44, 22.61 3.8 C25.69 1.16, 22.83 3.42, 23.2 3.77" stroke="#1e1e1e" stroke-width="2" fill="none"></path></g><g stroke-linecap="round" transform="translate(1126.0343006842704 965.2676611279821) rotate(0 17.686136484882354 11.807906463780455)"><path d="M13.71 0.73 C17.27 0.1, 22.96 -0.04, 26.33 1.03 C29.71 2.09, 32.6 4.65, 33.99 7.13 C35.38 9.61, 35.85 13.44, 34.68 15.91 C33.51 18.38, 30.19 20.77, 26.95 21.96 C23.72 23.15, 18.98 23.5, 15.26 23.04 C11.53 22.57, 7.1 21.07, 4.6 19.17 C2.11 17.27, 0.42 14.03, 0.3 11.65 C0.19 9.27, 1.46 6.77, 3.93 4.91 C6.4 3.05, 13.2 1.26, 15.13 0.48 C17.07 -0.3, 15.62 0.01, 15.52 0.22 M14.53 0.49 C17.79 -0.12, 22.34 0.83, 25.5 2.07 C28.66 3.32, 31.94 5.71, 33.47 7.96 C35 10.21, 35.78 13.27, 34.69 15.58 C33.6 17.9, 30.2 20.47, 26.93 21.88 C23.65 23.28, 18.8 24.37, 15.04 24.03 C11.28 23.69, 6.76 21.92, 4.37 19.84 C1.97 17.75, 0.68 14.18, 0.67 11.51 C0.65 8.84, 1.94 5.75, 4.29 3.8 C6.65 1.84, 13.03 0.38, 14.8 -0.21 C16.58 -0.81, 14.86 -0.13, 14.94 0.22" stroke="none" stroke-width="0" fill="#ffffff"></path><path d="M19.81 0.41 C23.31 0.52, 27.68 1.6, 30.32 3.49 C32.96 5.37, 35.5 9.18, 35.67 11.75 C35.84 14.31, 33.65 17.02, 31.35 18.88 C29.06 20.74, 25.56 22.29, 21.9 22.88 C18.24 23.47, 12.79 23.48, 9.4 22.42 C6.02 21.35, 3.07 18.91, 1.59 16.47 C0.11 14.04, -0.56 10.17, 0.52 7.81 C1.6 5.45, 4.74 3.62, 8.09 2.33 C11.43 1.04, 18.46 0.31, 20.58 0.06 C22.7 -0.2, 20.96 0.64, 20.8 0.79 M16.08 0.69 C19.47 0.45, 24.22 0.64, 27.4 2.09 C30.59 3.55, 34.16 6.86, 35.19 9.39 C36.21 11.93, 35.19 15.17, 33.56 17.33 C31.93 19.48, 28.89 21.34, 25.41 22.33 C21.93 23.31, 16.41 23.86, 12.69 23.22 C8.96 22.58, 5.04 20.47, 3.04 18.48 C1.05 16.49, 0.32 13.87, 0.71 11.29 C1.09 8.71, 2.64 4.98, 5.37 2.99 C8.1 1.01, 15.26 -0.14, 17.06 -0.63 C18.86 -1.12, 16.4 -0.35, 16.18 0.06" stroke="#846358" stroke-width="2" fill="none"></path></g><g stroke-linecap="round" transform="translate(894.2546112310338 355.56918975044755) rotate(0 136.80829157313292 22)"><path d="M11 0 C92.11 -2.24, 169.36 -0.13, 262.62 0 M11 0 C66.88 -3.72, 119.49 -1.26, 262.62 0 M262.62 0 C266.29 -0.82, 274.74 5.68, 273.62 11 M262.62 0 C271.4 -2.81, 269.59 2.64, 273.62 11 M273.62 11 C275.27 22.87, 270.25 25.71, 273.62 33 M273.62 11 C273.33 18.66, 272.43 22.55, 273.62 33 M273.62 33 C275.61 43.17, 269.5 46.28, 262.62 44 M273.62 33 C276.08 38.91, 268.38 44.25, 262.62 44 M262.62 44 C191.79 47.7, 113.88 50.63, 11 44 M262.62 44 C207.88 44.13, 154.73 42.72, 11 44 M11 44 C0.49 41.79, -2.81 36.48, 0 33 M11 44 C8.25 45.63, -3.83 38.8, 0 33 M0 33 C0.26 28.59, 1.55 19.52, 0 11 M0 33 C-1.38 25.82, 2.27 20.06, 0 11 M0 11 C2.43 6.54, 2.55 -3.04, 11 0 M0 11 C3.87 0.07, 7.61 3.82, 11 0" stroke="#5f3dc4" stroke-width="2" fill="none"></path></g><g transform="translate(971.646932955533 360.7691897504483) rotate(0 59.41596984863281 16.799999999999272)"><text x="59.41596984863281" y="23.128" font-family="Virgil, Segoe UI Emoji" font-size="28px" fill="#5f3dc4" text-anchor="middle" style="white-space: pre;" direction="ltr" dominant-baseline="alphabetic">Satellite</text></g><g stroke-linecap="round" transform="translate(19.51135926679308 425.2710001373671) rotate(0 245.5 85.02451888199903)"><path d="M42.51 0 C161.4 -4.39, 285.4 -0.85, 448.49 0 M42.51 0 C134.47 -3.86, 228.78 -3.07, 448.49 0 M448.49 0 C478.09 -2.44, 487.5 13.28, 491 42.51 M448.49 0 C481.32 2.14, 490.27 15.84, 491 42.51 M491 42.51 C488.24 77.68, 485.82 105.56, 491 127.54 M491 42.51 C490.71 76.84, 489.48 109.48, 491 127.54 M491 127.54 C493.15 154.64, 475.46 170.27, 448.49 170.05 M491 127.54 C490.64 155.86, 480.65 173.88, 448.49 170.05 M448.49 170.05 C321.05 174.06, 196.94 172.41, 42.51 170.05 M448.49 170.05 C293.72 169.1, 139.93 168.64, 42.51 170.05 M42.51 170.05 C18.15 171.47, -3.33 154.55, 0 127.54 M42.51 170.05 C10.75 172.21, 3.08 156.42, 0 127.54 M0 127.54 C0.76 97.27, 1.64 70.59, 0 42.51 M0 127.54 C-0.38 102.43, -2.15 72.92, 0 42.51 M0 42.51 C3.36 11.04, 17.6 3.32, 42.51 0 M0 42.51 C1.69 15.82, 9.83 3.75, 42.51 0" stroke="#1864ab" stroke-width="4" fill="none"></path></g><g transform="translate(121.44342713788683 488.69551901936575) rotate(0 143.56793212890625 21.600000000000364)"><text x="143.56793212890625" y="29.735999999999997" font-family="Virgil, Segoe UI Emoji" font-size="36px" fill="#1864ab" text-anchor="middle" style="white-space: pre;" direction="ltr" dominant-baseline="alphabetic">Remote Registry</text></g><g mask="url(#mask-JKkb3URqWgeaRFIy9W3s-)" stroke-linecap="round"><g transform="translate(886.3251163884252 756.1234795248165) rotate(0 -184.089982278771 -137.0795061514309)"><path d="M-0.3 0.96 C-62.02 -44.63, -308.02 -228.65, -369.28 -274.4" stroke="#1e1e1e" stroke-width="2.5" fill="none" stroke-dasharray="8 10"></path></g><g transform="translate(886.3251163884252 756.1234795248165) rotate(0 -184.089982278771 -137.0795061514309)"><path d="M-345.34 -267.19 C-352.98 -271.88, -364.29 -272.29, -369.28 -274.4" stroke="#1e1e1e" stroke-width="2.5" fill="none"></path></g><g transform="translate(886.3251163884252 756.1234795248165) rotate(0 -184.089982278771 -137.0795061514309)"><path d="M-355.58 -253.49 C-359.14 -263.48, -366.48 -269.21, -369.28 -274.4" stroke="#1e1e1e" stroke-width="2.5" fill="none"></path></g></g><mask id="mask-JKkb3URqWgeaRFIy9W3s-"><rect x="0" y="0" fill="#fff" width="1354.505080945967" height="1130.2824918276774"></rect><rect x="640.9651908723499" y="569.0439733733838" fill="#000" width="122.53988647460938" height="100" opacity="1"></rect></mask><g transform="translate(640.9651908723499 569.0439733733838) rotate(0 60.57231442779266 50.35973606258813)"><text x="61.26994323730469" y="17.52" font-family="Virgil, Segoe UI Emoji" font-size="20px" fill="#1e1e1e" text-anchor="middle" style="white-space: pre;" direction="ltr" dominant-baseline="alphabetic">Pull</text><text x="61.26994323730469" y="42.519999999999996" font-family="Virgil, Segoe UI Emoji" font-size="20px" fill="#1e1e1e" text-anchor="middle" style="white-space: pre;" direction="ltr" dominant-baseline="alphabetic">Images</text><text x="61.26994323730469" y="67.52" font-family="Virgil, Segoe UI Emoji" font-size="20px" fill="#1e1e1e" text-anchor="middle" style="white-space: pre;" direction="ltr" dominant-baseline="alphabetic">from Remote</text><text x="61.26994323730469" y="92.52" font-family="Virgil, Segoe UI Emoji" font-size="20px" fill="#1e1e1e" text-anchor="middle" style="white-space: pre;" direction="ltr" dominant-baseline="alphabetic">Registry</text></g><g mask="url(#mask--IOtXAAOX9ppD5SKqDBXS)" stroke-linecap="round"><g transform="translate(1029.3316929078846 425.4563685795438) rotate(0 58.748992412039115 73.03379297408901)"><path d="M0.34 0.6 C20.17 24.87, 98.52 121.14, 117.88 145.33" stroke="#1971c2" stroke-width="2.5" fill="none" stroke-dasharray="8 10"></path></g><g transform="translate(1029.3316929078846 425.4563685795438) rotate(0 58.748992412039115 73.03379297408901)"><path d="M96.46 132.43 C101.91 135.7, 104.14 136, 117.88 145.33" stroke="#1971c2" stroke-width="2.5" fill="none"></path></g><g transform="translate(1029.3316929078846 425.4563685795438) rotate(0 58.748992412039115 73.03379297408901)"><path d="M109.76 121.69 C112.41 127.23, 111.88 129.78, 117.88 145.33" stroke="#1971c2" stroke-width="2.5" fill="none"></path></g></g><mask id="mask--IOtXAAOX9ppD5SKqDBXS"><rect x="0" y="0" fill="#fff" width="1246.8296777319629" height="671.5239545277223"></rect><rect x="1026.6407286548847" y="488.4901615536328" fill="#000" width="122.87991333007812" height="20" opacity="1"></rect></mask><g transform="translate(1026.6407286548847 488.4901615536328) rotate(0 61.79741217941046 9.935134221614135)"><text x="61.43995666503906" y="14.016" font-family="Virgil, Segoe UI Emoji" font-size="16px" fill="#1971c2" text-anchor="middle" style="white-space: pre;" direction="ltr" dominant-baseline="alphabetic">Pull Instruction</text></g><g stroke-linecap="round" transform="translate(1409.8539665541475 124.36546632736645) rotate(0 106.26510897504568 34.1682595257098)"><path d="M-0.81 -0.52 L212.01 0.37 L212.77 71.41 L-2.84 65.5" stroke="none" stroke-width="0" fill="#b2f2bb"></path><path d="M-2.66 1.84 C65.66 -0.42, 133.81 0.94, 213.12 -0.28 M211.22 3.66 C208.75 18.48, 208.9 38.73, 214.3 68.89 M212 66.43 C166.52 73.63, 117.8 70.89, 1.08 65.46 M0.7 71.67 C3.54 54.97, 3.2 36.33, -0.39 -2.13" stroke="#40c057" stroke-width="1.5" fill="none" stroke-dasharray="8 9"></path></g><g transform="translate(1454.0231130047796 148.53372585307443) rotate(0 62.09596252441406 10)"><text x="62.09596252441406" y="14.016" font-family="Virgil, Segoe UI Emoji" font-size="16px" fill="#40c057" text-anchor="middle" style="white-space: pre;" direction="ltr" dominant-baseline="alphabetic">Spegel Instance</text></g><g stroke-linecap="round" transform="translate(1203.0539404958263 124.36546632736645) rotate(0 93.03300171850469 35.43624494755568)"><path d="M-0.52 0.37 L186.31 3.07 L183.23 68.03 L-0.14 68.18" stroke="none" stroke-width="0" fill="#a5d8ff"></path><path d="M-2.03 -1.91 C48.32 -2.31, 99.77 -2.27, 186.07 -2.91 M183.28 -2.02 C182.97 22.84, 187.37 50.78, 183.06 74.06 M188.09 73.14 C114.78 68.01, 42.76 65.59, -3.2 70.08 M3.27 72.54 C2.68 46.29, -0.64 23.44, -0.81 -0.52" stroke="#1971c2" stroke-width="1.5" fill="none" stroke-dasharray="8 9"></path></g><g transform="translate(1256.2364173119868 148.80171127492213) rotate(0 39.85052490234375 11)"><text x="39.85052490234375" y="15.84816002179152" font-family="Virgil, Segoe UI Emoji" font-size="16.44876999520984px" fill="#1971c2" text-anchor="middle" style="white-space: pre;" direction="ltr" dominant-baseline="alphabetic">Stateless</text></g><g stroke-linecap="round"><g transform="translate(1173.682614528083 346.69070029435534) rotate(0 63.812245199046174 -69.85592828677727)"><path d="M-0.19 0.44 C21.04 -23.12, 107.4 -117.36, 128.56 -140.78" stroke="#228be6" stroke-width="1.5" fill="none" stroke-dasharray="1.5 7"></path></g></g><mask></mask><g stroke-linecap="round" transform="translate(1652.0794870610453 124.36546632736645) rotate(0 169.3847217530315 65)"><path d="M0.24 3.07 L335.93 -2.84 L338.63 127.31 L1.91 131.22" stroke="none" stroke-width="0" fill="#ffec99"></path><path d="M-0.82 -0.24 C119.85 1.95, 238.8 0.21, 340.22 -0.88 M336.14 -2.28 C338.73 51.44, 333.95 104.95, 342.31 129.4 M339.43 129.43 C256.31 130.38, 170.06 132.03, 0.52 130.46 M2.93 128.07 C-2.52 78.03, -2.94 29.81, -0.52 0.37" stroke="#fab005" stroke-width="2.5" fill="none" stroke-dasharray="8 10"></path></g><g transform="translate(1657.0794870610453 129.36546632736645) rotate(0 149.74391174316406 60)"><text x="0" y="14.016" font-family="Virgil, Segoe UI Emoji" font-size="16px" fill="#fab005" text-anchor="start" style="white-space: pre;" direction="ltr" dominant-baseline="alphabetic">Consumer Configuration</text><text x="0" y="34.016" font-family="Virgil, Segoe UI Emoji" font-size="16px" fill="#fab005" text-anchor="start" style="white-space: pre;" direction="ltr" dominant-baseline="alphabetic"></text><text x="0" y="54.016" font-family="Virgil, Segoe UI Emoji" font-size="16px" fill="#fab005" text-anchor="start" style="white-space: pre;" direction="ltr" dominant-baseline="alphabetic">1.  containerD/CRI-O Mirror Config</text><text x="0" y="74.016" font-family="Virgil, Segoe UI Emoji" font-size="16px" fill="#fab005" text-anchor="start" style="white-space: pre;" direction="ltr" dominant-baseline="alphabetic">2. HTTP Proxy</text><text x="0" y="94.016" font-family="Virgil, Segoe UI Emoji" font-size="16px" fill="#fab005" text-anchor="start" style="white-space: pre;" direction="ltr" dominant-baseline="alphabetic">3. Direct Reference </text><text x="0" y="114.016" font-family="Virgil, Segoe UI Emoji" font-size="16px" fill="#fab005" text-anchor="start" style="white-space: pre;" direction="ltr" dominant-baseline="alphabetic">3.5 Direct Ref. via Mutating Webhook</text></g><g stroke-linecap="round"><g transform="translate(1770.443256890915 274.31459778136195) rotate(0 -283.8489637093412 165.50327032919813)"><path d="M0.91 -1.1 C-93.63 54.31, -473.15 276.73, -568.07 332.05" stroke="#868e96" stroke-width="1.5" fill="none" stroke-dasharray="1.5 7"></path></g></g><mask></mask><g stroke-linecap="round" transform="translate(830.186993673462 124.7607016509246) rotate(0 122.22885785466997 55.29458484508359)"><path d="M-2.84 -2.84 L244.32 -2.69 L246.37 111.81 L-1.19 114.27" stroke="none" stroke-width="0" fill="#ffc9c9"></path><path d="M0.55 -0.26 C61.69 -2.04, 125.17 -0.72, 247.48 -2.3 M246.23 0.55 C240 30.77, 246.54 54.56, 242.29 112.62 M245.48 107.89 C154.63 109.07, 70.73 110.3, 2.75 113.29 M-0.39 108.46 C-2.43 72.28, -2.14 35.38, 0.24 3.07" stroke="#e03131" stroke-width="1.5" fill="none" stroke-dasharray="8 9"></path></g><g transform="translate(855.3838996238346 158.65551009312185) rotate(0 97.03195190429688 21.399776402886346)"><text x="97.03195190429688" y="15.415776402886559" font-family="Virgil, Segoe UI Emoji" font-size="16px" fill="#e03131" text-anchor="middle" style="white-space: pre;" direction="ltr" dominant-baseline="alphabetic">Hirarchy of Options</text><text x="97.03195190429688" y="36.815552805773116" font-family="Virgil, Segoe UI Emoji" font-size="16px" fill="#e03131" text-anchor="middle" style="white-space: pre;" direction="ltr" dominant-baseline="alphabetic">Interface can be a file </text></g><g stroke-linecap="round" transform="translate(230.8153854012653 189.43172315561242) rotate(0 133.28438097325716 50)"><path d="M25 0 C74.78 -1.14, 123.07 -0.01, 241.57 0 M25 0 C83.22 -0.11, 142.31 0.62, 241.57 0 M241.57 0 C258.42 -1.02, 268.55 6.56, 266.57 25 M241.57 0 C257.74 -0.65, 264.38 10.15, 266.57 25 M266.57 25 C265.43 33.91, 264.61 47.63, 266.57 75 M266.57 25 C265.41 42.24, 266.82 58.66, 266.57 75 M266.57 75 C266.85 92.55, 256.46 100.75, 241.57 100 M266.57 75 C264.52 93.04, 256.2 100.28, 241.57 100 M241.57 100 C157.5 100.66, 69.59 102.62, 25 100 M241.57 100 C193.86 101.88, 144.69 102.28, 25 100 M25 100 C6.45 101.13, 0.7 91.59, 0 75 M25 100 C8.57 99.9, 0.17 93.36, 0 75 M0 75 C-1.62 61.11, -1.8 46.62, 0 25 M0 75 C0.5 63.61, -1.08 51.56, 0 25 M0 25 C0.01 8.87, 7.92 1.55, 25 0 M0 25 C-0.22 6.22, 6.62 0.37, 25 0" stroke="#099268" stroke-width="4" fill="none"></path></g><g transform="translate(290.5598264941509 226.93172315561242) rotate(0 73.5399398803711 12.5)"><text x="73.5399398803711" y="17.52" font-family="Virgil, Segoe UI Emoji" font-size="20px" fill="#099268" text-anchor="middle" style="white-space: pre;" direction="ltr" dominant-baseline="alphabetic">Ground Control</text></g><g mask="url(#mask-K_4efVfYd3sVl35XRlszB)" stroke-linecap="round"><g transform="translate(890.3845906038159 361.71945396312367) rotate(0 -186.76699242428685 -62.80197895290439)"><path d="M0.64 -0.37 C-61.66 -21.41, -311.57 -104.66, -373.94 -125.54" stroke="#1e1e1e" stroke-width="2.5" fill="none" stroke-dasharray="8 10"></path></g><g transform="translate(890.3845906038159 361.71945396312367) rotate(0 -186.76699242428685 -62.80197895290439)"><path d="M-348.95 -126.21 C-356.78 -126.56, -363.27 -125.84, -373.94 -125.54" stroke="#1e1e1e" stroke-width="2.5" fill="none"></path></g><g transform="translate(890.3845906038159 361.71945396312367) rotate(0 -186.76699242428685 -62.80197895290439)"><path d="M-354.37 -109.99 C-360.73 -115.06, -365.65 -119.02, -373.94 -125.54" stroke="#1e1e1e" stroke-width="2.5" fill="none"></path></g></g><mask id="mask-K_4efVfYd3sVl35XRlszB"><rect x="0" y="0" fill="#fff" width="1363.9185754523894" height="587.3234118689336"></rect><rect x="597.953657749842" y="258.9174750102211" fill="#000" width="211.327880859375" height="80" opacity="1"></rect></mask><g transform="translate(597.953657749842 258.9174750102211) rotate(0 105.78077761977875 39.84800291210013)"><text x="105.6639404296875" y="14.016" font-family="Virgil, Segoe UI Emoji" font-size="16px" fill="#1e1e1e" text-anchor="middle" style="white-space: pre;" direction="ltr" dominant-baseline="alphabetic"></text><text x="105.6639404296875" y="34.016" font-family="Virgil, Segoe UI Emoji" font-size="16px" fill="#1e1e1e" text-anchor="middle" style="white-space: pre;" direction="ltr" dominant-baseline="alphabetic">Fetch a list of images to </text><text x="105.6639404296875" y="54.016" font-family="Virgil, Segoe UI Emoji" font-size="16px" fill="#1e1e1e" text-anchor="middle" style="white-space: pre;" direction="ltr" dominant-baseline="alphabetic">replicate</text><text x="105.6639404296875" y="74.016" font-family="Virgil, Segoe UI Emoji" font-size="16px" fill="#1e1e1e" text-anchor="middle" style="white-space: pre;" direction="ltr" dominant-baseline="alphabetic">(Optional)</text></g><g stroke-linecap="round"><g transform="translate(940.7544122553873 248.01105781281876) rotate(0 -113.37543850723978 16.37728059820256)"><path d="M0 0 C-37.79 5.46, -188.96 27.3, -226.75 32.75" stroke="#fa5252" stroke-width="1.5" fill="none" stroke-dasharray="1.5 7"></path></g></g><mask></mask><g stroke-linecap="round"><g transform="translate(364.63756625047426 298.6708480489724) rotate(0 0.0021822891249030363 54.08803595902282)"><path d="M0 0 C0 18.03, 0 90.15, 0 108.18" stroke="#1971c2" stroke-width="2.5" fill="none" stroke-dasharray="8 10"></path></g><g transform="translate(364.63756625047426 298.6708480489724) rotate(0 0.0021822891249030363 54.08803595902282)"><path d="M-8.55 84.68 C-6.05 91.55, -3.55 98.42, 0 108.18" stroke="#1971c2" stroke-width="2.5" fill="none"></path></g><g transform="translate(364.63756625047426 298.6708480489724) rotate(0 0.0021822891249030363 54.08803595902282)"><path d="M8.55 84.68 C6.06 91.55, 3.56 98.42, 0 108.18" stroke="#1971c2" stroke-width="2.5" fill="none"></path></g></g><mask></mask><g stroke-linecap="round"><g transform="translate(10 1156.586005551715) rotate(0 353.4852489217619 -0.5780785255446972)"><path d="M0 0 C117.83 -0.19, 589.14 -0.96, 706.97 -1.16" stroke="#1971c2" stroke-width="4.5" fill="none" stroke-dasharray="8 12"></path></g></g><mask></mask><g stroke-linecap="round"><g transform="translate(1224.9130611100954 1154.462599825296) rotate(0 366.39592024182275 -1.1456019788274716)"><path d="M0 0 C122.13 -0.38, 610.66 -1.91, 732.79 -2.29" stroke="#1971c2" stroke-width="4.5" fill="none" stroke-dasharray="8 12"></path></g></g><mask></mask><g stroke-linecap="round"><g transform="translate(806.1184010997904 1153.1186802713019) rotate(0 177.19751235830972 -0.4473692705905705)"><path d="M0 0 C59.07 -0.15, 295.33 -0.75, 354.4 -0.89" stroke="#1971c2" stroke-width="4.5" fill="none" stroke-dasharray="8 12"></path></g></g><mask></mask><g stroke-linecap="round"><g transform="translate(1187.3628097568871 1007.86787755779) rotate(0 119.81551367952761 -70.85993250869069)"><path d="M-1.14 0.95 C38.65 -22.63, 198.54 -117.92, 238.51 -141.81 M0.46 0.4 C40.63 -22.95, 200.53 -116.68, 240.63 -140.32" stroke="#1e1e1e" stroke-width="2" fill="none"></path></g></g><mask></mask><g stroke-linecap="round"><g transform="translate(944.5975160118705 848.1538159231859) rotate(0 67.17723041122326 70.25758607639182)"><path d="M-1.12 -0.09 C21.3 23.06, 110.96 116.61, 133.4 139.85 M0.49 -1.18 C23.38 22.03, 113.03 117.5, 135.61 141.04" stroke="#1e1e1e" stroke-width="2" fill="none"></path></g></g><mask></mask><g stroke-linecap="round"><g transform="translate(1180.480049487489 656.0062315534706) rotate(0 114.58250555303766 71.06300416378872)"><path d="M-0.95 -0.66 C37.29 22.85, 189.77 117.1, 228.32 140.97 M0.75 1.6 C39.46 25.22, 192.34 118.76, 230.59 141.9" stroke="#1e1e1e" stroke-width="2" fill="none"></path></g></g><mask></mask><g stroke-linecap="round" transform="translate(920.8114493969206 715.6146758600626) rotate(0 19.558657466857312 17.739178409508895)"><path d="M19.18 -0.08 C23.2 -0.32, 28.3 1.52, 31.63 3.93 C34.95 6.35, 38.24 10.69, 39.12 14.41 C40.01 18.12, 38.98 23, 36.93 26.24 C34.88 29.48, 30.81 32.48, 26.8 33.86 C22.79 35.24, 16.88 35.7, 12.88 34.52 C8.88 33.34, 4.93 30, 2.78 26.78 C0.64 23.56, -0.68 18.93, 0.01 15.2 C0.7 11.48, 3.67 6.93, 6.94 4.44 C10.21 1.96, 17.32 0.94, 19.6 0.29 C21.89 -0.37, 20.54 0.31, 20.66 0.53 M19.25 0.67 C23.27 0.29, 28.43 1.7, 31.58 3.95 C34.73 6.2, 37.43 10.37, 38.16 14.17 C38.9 17.97, 37.91 23.38, 35.98 26.75 C34.05 30.13, 30.3 33.09, 26.56 34.41 C22.82 35.73, 17.47 36.05, 13.56 34.68 C9.65 33.31, 5.3 29.45, 3.09 26.2 C0.88 22.95, -0.29 18.93, 0.32 15.19 C0.92 11.45, 3.6 6.34, 6.71 3.78 C9.83 1.23, 16.97 0.56, 19.02 -0.12 C21.08 -0.8, 18.94 -0.58, 19.03 -0.28" stroke="none" stroke-width="0" fill="#ffffff"></path><path d="M24.21 0.18 C28.14 0.97, 33.19 4.55, 35.67 7.71 C38.16 10.87, 39.44 15.47, 39.12 19.13 C38.81 22.79, 36.69 27.04, 33.78 29.68 C30.88 32.31, 25.86 34.56, 21.7 34.94 C17.54 35.32, 12.33 33.94, 8.84 31.96 C5.36 29.97, 1.9 26.55, 0.79 23.02 C-0.31 19.49, 0.44 14.32, 2.21 10.75 C3.98 7.19, 7.74 3.24, 11.43 1.62 C15.11 0, 22.15 1.07, 24.34 1.05 C26.52 1.03, 24.51 1.24, 24.55 1.48 M20.6 0.5 C24.75 0.49, 30.6 2.58, 33.68 5.2 C36.77 7.81, 38.8 12.32, 39.12 16.2 C39.44 20.08, 38.04 25.34, 35.61 28.5 C33.19 31.65, 28.52 34.34, 24.57 35.13 C20.62 35.93, 15.64 35.01, 11.92 33.25 C8.19 31.5, 3.99 28.02, 2.2 24.59 C0.42 21.16, 0.1 16.28, 1.23 12.67 C2.36 9.06, 5.53 4.96, 8.99 2.95 C12.46 0.93, 20.03 0.91, 21.99 0.58 C23.95 0.24, 20.92 0.7, 20.77 0.95" stroke="#a18072" stroke-width="2" fill="none"></path></g><g stroke-linecap="round" transform="translate(843.2006666304696 547.2620317888723) rotate(0 381.875 280.625)"><path d="M32 0 C184.02 2.62, 335.38 2.19, 731.75 0 M731.75 0 C753.96 -1.78, 764.5 8.88, 763.75 32 M763.75 32 C762.73 211.6, 762.46 390.23, 763.75 529.25 M763.75 529.25 C763.19 549.06, 754.76 559.69, 731.75 561.25 M731.75 561.25 C462.2 561.53, 192.72 561.53, 32 561.25 M32 561.25 C11.8 561.95, -0.07 550.79, 0 529.25 M0 529.25 C-0.16 382.46, 0.56 234.54, 0 32 M0 32 C1.04 9.03, 12.14 -1.17, 32 0" stroke="#1e1e1e" stroke-width="2.5" fill="none" stroke-dasharray="1.5 8"></path></g><g transform="translate(1473.749740320186 1071.451449861972) rotate(0 59.80994415283203 12.5)"><text x="0" y="17.52" font-family="Virgil, Segoe UI Emoji" font-size="20px" fill="#1e1e1e" text-anchor="start" style="white-space: pre;" direction="ltr" dominant-baseline="alphabetic">K8s Cluster</text></g><g stroke-linecap="round"><g transform="translate(801.7656214815906 68.95327193293997) rotate(0 1.0492039650425795 535.3638174770222)"><path d="M0 0 C0.35 178.45, 1.75 892.27, 2.1 1070.73" stroke="#846358" stroke-width="4.5" fill="none" stroke-dasharray="1.5 10"></path></g></g><mask></mask><g transform="translate(648.7916833783802 10) rotate(0 171.12594604492188 22.5)"><text x="0" y="31.536" font-family="Virgil, Segoe UI Emoji" font-size="36px" fill="#846358" text-anchor="start" style="white-space: pre;" direction="ltr" dominant-baseline="alphabetic">Network Boundaries</text></g></svg>