<svg version="1.1" xmlns="http://www.w3.org/2000/svg" viewBox="0 0 2005.0495775248219 890.4715089304373" width="2005.0495775248219" height="890.4715089304373">
  <!-- svg-source:excalidraw -->
  
  <defs>
    <style class="style-fonts">
      @font-face {
        font-family: "Virgil";
        src: url("https://excalidraw.com/Virgil.woff2");
      }
      @font-face {
        font-family: "Cascadia";
        src: url("https://excalidraw.com/Cascadia.woff2");
      }
      @font-face {
        font-family: "Assistant";
        src: url("https://excalidraw.com/Assistant-Regular.woff2");
      }
    </style>
    
  </defs>
  <g stroke-linecap="round" transform="translate(888.0151685502069 314.30131317288215) rotate(0 136.80829157313292 22)"><path d="M11 0 C76.91 -0.09, 150.89 0.94, 262.62 0 M11 0 C75.68 0.09, 139.99 -1.22, 262.62 0 M262.62 0 C266.09 0.51, 277.37 1.25, 273.62 11 M262.62 0 C271.63 2.94, 269.92 3.3, 273.62 11 M273.62 11 C276.16 18.26, 273.85 19.49, 273.62 33 M273.62 11 C271.85 19.47, 273.97 27.11, 273.62 33 M273.62 33 C271.99 38.83, 272.02 45.18, 262.62 44 M273.62 33 C274.53 43.88, 268.46 43.52, 262.62 44 M262.62 44 C209.78 46.97, 159.61 44.65, 11 44 M262.62 44 C175.46 48.34, 87.23 47.38, 11 44 M11 44 C6.9 41.43, -2.53 36.69, 0 33 M11 44 C5.84 40.39, 3.16 44.88, 0 33 M0 33 C-3.1 28.64, 2.58 16.56, 0 11 M0 33 C0.58 23.31, 1.41 14.68, 0 11 M0 11 C-1.52 1.92, 0.11 -0.94, 11 0 M0 11 C-1.77 1.76, 1.8 1.45, 11 0" stroke="#5f3dc4" stroke-width="2" fill="none"></path></g><g transform="translate(965.407490274707 319.5013131728829) rotate(0 59.41596984863281 16.800000000000182)"><text x="59.41596984863281" y="23.128" font-family="Virgil, Segoe UI Emoji" font-size="28px" fill="#5f3dc4" text-anchor="middle" style="white-space: pre;" direction="ltr" dominant-baseline="alphabetic">Satellite</text></g><g stroke-linecap="round" transform="translate(13.86075487740527 382.2875313577315) rotate(0 245.5 85.02451888199903)"><path d="M42.51 0 C168.38 -1.79, 296.77 -2.46, 448.49 0 M42.51 0 C196.28 0.1, 353.25 -0.71, 448.49 0 M448.49 0 C478.29 2.56, 487.78 13.85, 491 42.51 M448.49 0 C473.48 -3.9, 489.94 17.52, 491 42.51 M491 42.51 C493.88 74.28, 490.54 99.28, 491 127.54 M491 42.51 C490.36 69.11, 492.2 97.8, 491 127.54 M491 127.54 C491.8 158.97, 475.54 169.63, 448.49 170.05 M491 127.54 C486.71 152.4, 481.18 168.87, 448.49 170.05 M448.49 170.05 C338.98 163.36, 229.52 165.26, 42.51 170.05 M448.49 170.05 C314.22 168.17, 177.45 167.88, 42.51 170.05 M42.51 170.05 C16.06 166.91, 2.75 159.83, 0 127.54 M42.51 170.05 C17.78 166.68, -4.07 151.94, 0 127.54 M0 127.54 C2.86 92.2, -1.57 60.52, 0 42.51 M0 127.54 C-1.83 105.36, -2.84 84.47, 0 42.51 M0 42.51 C-1.54 12.52, 12.55 1.26, 42.51 0 M0 42.51 C3.91 12.89, 13.64 3.14, 42.51 0" stroke="#1864ab" stroke-width="4" fill="none"></path></g><g transform="translate(115.79282274849902 445.71205023973016) rotate(0 143.56793212890625 21.600000000000364)"><text x="143.56793212890625" y="29.735999999999997" font-family="Virgil, Segoe UI Emoji" font-size="36px" fill="#1864ab" text-anchor="middle" style="white-space: pre;" direction="ltr" dominant-baseline="alphabetic">Remote Registry</text></g><g mask="url(#mask-zTIKxpMif2I81Yi0h9gxG)" stroke-linecap="round"><g transform="translate(881.7157358275053 342.3470242961448) rotate(0 -184.610594193005 48.28455181181744)"><path d="M-0.26 0.98 C-61.94 17.01, -308.31 80.62, -370 96.58" stroke="#1e1e1e" stroke-width="2.5" fill="none" stroke-dasharray="1.5 8"></path></g><g transform="translate(881.7157358275053 342.3470242961448) rotate(0 -184.610594193005 48.28455181181744)"><path d="M-349.4 82.42 C-354.08 85.45, -362.05 89.19, -370 96.58" stroke="#1e1e1e" stroke-width="2.5" fill="none" stroke-dasharray="1.5 6"></path></g><g transform="translate(881.7157358275053 342.3470242961448) rotate(0 -184.610594193005 48.28455181181744)"><path d="M-345.12 98.98 C-351.18 96.88, -360.47 95.52, -370 96.58" stroke="#1e1e1e" stroke-width="2.5" fill="none" stroke-dasharray="1.5 6"></path></g></g><mask id="mask-zTIKxpMif2I81Yi0h9gxG"><rect x="0" y="0" fill="#fff" width="1350.9369242135153" height="622.3470242961448"></rect><rect x="635.8351983971952" y="340.63157610796225" fill="#000" width="122.53988647460938" height="100" opacity="1"></rect></mask><g transform="translate(635.8351983971952 340.63157610796225) rotate(0 60.75180384963778 50.493617917597476)"><text x="61.26994323730469" y="17.52" font-family="Virgil, Segoe UI Emoji" font-size="20px" fill="#1e1e1e" text-anchor="middle" style="white-space: pre;" direction="ltr" dominant-baseline="alphabetic">Pull</text><text x="61.26994323730469" y="42.519999999999996" font-family="Virgil, Segoe UI Emoji" font-size="20px" fill="#1e1e1e" text-anchor="middle" style="white-space: pre;" direction="ltr" dominant-baseline="alphabetic">Images</text><text x="61.26994323730469" y="67.52" font-family="Virgil, Segoe UI Emoji" font-size="20px" fill="#1e1e1e" text-anchor="middle" style="white-space: pre;" direction="ltr" dominant-baseline="alphabetic">from Remote</text><text x="61.26994323730469" y="92.52" font-family="Virgil, Segoe UI Emoji" font-size="20px" fill="#1e1e1e" text-anchor="middle" style="white-space: pre;" direction="ltr" dominant-baseline="alphabetic">Registry</text></g><g stroke-linecap="round" transform="translate(887.1933586520827 509.99984374125415) rotate(0 138.01418185493685 49.167257359998985)"><path d="M24.58 0 C78.1 3.48, 130.14 2.5, 251.44 0 M24.58 0 C106.53 -0.57, 189.53 0.78, 251.44 0 M251.44 0 C268.96 0.31, 275.28 9.5, 276.03 24.58 M251.44 0 C268.67 -0.41, 273.81 8.69, 276.03 24.58 M276.03 24.58 C275.28 40.85, 276.63 55.45, 276.03 73.75 M276.03 24.58 C274.94 42.37, 276.82 61.42, 276.03 73.75 M276.03 73.75 C275.47 90.76, 265.85 99.24, 251.44 98.33 M276.03 73.75 C273.74 92.27, 267.51 99.09, 251.44 98.33 M251.44 98.33 C203.5 98.82, 156.21 100.71, 24.58 98.33 M251.44 98.33 C201.87 99.62, 150.19 99.52, 24.58 98.33 M24.58 98.33 C10.18 99.46, 0.1 92.05, 0 73.75 M24.58 98.33 C7.39 97.99, 0.49 89, 0 73.75 M0 73.75 C-0.65 54.14, -0.25 37.3, 0 24.58 M0 73.75 C1.05 60.76, 0.08 49, 0 24.58 M0 24.58 C-1.43 7.8, 6.4 0.09, 24.58 0 M0 24.58 C0.47 6.69, 7.46 -1.7, 24.58 0" stroke="#9c36b5" stroke-width="2" fill="none"></path></g><g transform="translate(918.5076427409067 534.1671011012513) rotate(0 106.69989776611328 25)"><text x="106.69989776611328" y="17.52" font-family="Virgil, Segoe UI Emoji" font-size="20px" fill="#9c36b5" text-anchor="middle" style="white-space: pre;" direction="ltr" dominant-baseline="alphabetic">OCI Registry</text><text x="106.69989776611328" y="42.519999999999996" font-family="Virgil, Segoe UI Emoji" font-size="20px" fill="#9c36b5" text-anchor="middle" style="white-space: pre;" direction="ltr" dominant-baseline="alphabetic">Pull &amp;&amp; Push Support</text></g><g stroke-linecap="round" transform="translate(952.1464339201902 661.3705684264642) rotate(0 75.56207756189724 37.933706265553155)"><path d="M18.97 0 C64.84 -2.02, 107.99 -1.87, 132.16 0 M132.16 0 C143.11 -0.46, 152.58 7.45, 151.12 18.97 M151.12 18.97 C151.71 30.57, 149.05 43.32, 151.12 56.9 M151.12 56.9 C151.32 69.58, 143.99 75.11, 132.16 75.87 M132.16 75.87 C93.89 75.45, 52.32 74.23, 18.97 75.87 M18.97 75.87 C4.81 77.76, -0.51 68.99, 0 56.9 M0 56.9 C-1.62 46.2, 0.1 32.45, 0 18.97 M0 18.97 C-1.87 5.81, 7.94 -1.29, 18.97 0" stroke="#1971c2" stroke-width="2.5" fill="none" stroke-dasharray="8 10"></path></g><g transform="translate(996.8885423048414 686.8042746920182) rotate(0 30.819969177246094 12.5)"><text x="30.819969177246094" y="17.52" font-family="Virgil, Segoe UI Emoji" font-size="20px" fill="#1971c2" text-anchor="middle" style="white-space: pre;" direction="ltr" dominant-baseline="alphabetic">Volume</text></g><g stroke-linecap="round"><g transform="translate(1022.1140326435016 623.3235296769708) rotate(0 -1.368664302731304 18.279612358855957)"><path d="M-0.4 -0.47 C-0.8 5.7, -2.53 30.78, -2.86 36.96 M0.4 0.48 C-0.05 6.5, -2.86 30.07, -3.36 36.2" stroke="#1971c2" stroke-width="2" fill="none"></path></g></g><mask></mask><g mask="url(#mask-drp7ajGpsRZqZsS9R-5MY)" stroke-linecap="round"><g transform="translate(1023.3239864800662 362.1490942146902) rotate(0 -0.6090264862550612 72.01286754705598)"><path d="M-0.28 0.87 C-0.22 25.08, -0.31 120.22, -0.54 144.21" stroke="#1971c2" stroke-width="2.5" fill="none" stroke-dasharray="8 10"></path></g><g transform="translate(1023.3239864800662 362.1490942146902) rotate(0 -0.6090264862550612 72.01286754705598)"><path d="M-8.98 120.68 C-5.81 127.18, -5.04 130.64, -0.54 144.21" stroke="#1971c2" stroke-width="2.5" fill="none"></path></g><g transform="translate(1023.3239864800662 362.1490942146902) rotate(0 -0.6090264862550612 72.01286754705598)"><path d="M8.12 120.76 C7.41 127.2, 4.29 130.64, -0.54 144.21" stroke="#1971c2" stroke-width="2.5" fill="none"></path></g></g><mask id="mask-drp7ajGpsRZqZsS9R-5MY"><rect x="0" y="0" fill="#fff" width="1124.5420394525763" height="606.1748293088021"></rect><rect x="948.8250292687135" y="421.6619617617471" fill="#000" width="147.7798614501953" height="25" opacity="1"></rect></mask><g transform="translate(948.8250292687135 421.6619617617471) rotate(0 74.0986343436357 13.028891326485791)"><text x="73.88993072509766" y="17.52" font-family="Virgil, Segoe UI Emoji" font-size="20px" fill="#1971c2" text-anchor="middle" style="white-space: pre;" direction="ltr" dominant-baseline="alphabetic">Pushing Images</text></g><g stroke-linecap="round"><g transform="translate(1028.7022380182407 402.59725004323263) rotate(0 -1.0076053983898419 12.993390826068207)"><path d="M0.31 0.08 C-0.04 4.41, -1.87 22.05, -2.22 26.35" stroke="#1971c2" stroke-width="2.5" fill="none" stroke-dasharray="8 10"></path></g><g transform="translate(1028.7022380182407 402.59725004323263) rotate(0 -1.0076053983898419 12.993390826068207)"><path d="M-5.51 13.74 C-4.45 16.97, -3.22 20.95, -2.22 26.35" stroke="#1971c2" stroke-width="2.5" fill="none"></path></g><g transform="translate(1028.7022380182407 402.59725004323263) rotate(0 -1.0076053983898419 12.993390826068207)"><path d="M3.37 14.57 C1.96 17.6, 0.74 21.35, -2.22 26.35" stroke="#1971c2" stroke-width="2.5" fill="none"></path></g></g><mask></mask><g stroke-linecap="round" transform="translate(854.8556096403972 267.06608694182796) rotate(0 172.12287368803482 186.2432281277297)"><path d="M32 0 C105.25 -2.26, 179.37 -0.63, 312.25 0 M312.25 0 C333.61 -0.81, 343.49 11.7, 344.25 32 M344.25 32 C344.22 133.52, 343.35 234.26, 344.25 340.49 M344.25 340.49 C346.14 361.31, 333.02 373.11, 312.25 372.49 M312.25 372.49 C257.35 370.14, 200.12 368.92, 32 372.49 M32 372.49 C10.15 374.1, -1.29 360.55, 0 340.49 M0 340.49 C-0.06 277.44, 0.08 210.5, 0 32 M0 32 C-1.77 8.96, 12.65 1.13, 32 0" stroke="#1971c2" stroke-width="2.5" fill="none" stroke-dasharray="1.5 8"></path></g><g stroke-linecap="round"><g transform="translate(1175.1131315264256 540.4569986497954) rotate(0 143.21262839174233 -160.3265542980871)"><path d="M-1.16 0.26 C46.53 -53.14, 238.69 -267.07, 286.54 -320.63" stroke="#12b886" stroke-width="1.5" fill="none" stroke-dasharray="1.5 7"></path></g></g><mask></mask><g stroke-linecap="round" transform="translate(1408.457574583559 82.53831933863512) rotate(0 106.26510897504568 59.18900572163693)"><path d="M3.95 -0.88 L209.99 2.61 L213.03 121.06 L2.58 118.5" stroke="none" stroke-width="0" fill="#b2f2bb"></path><path d="M-1.79 1.51 C68.22 -4.22, 136.16 -1.73, 209.24 -2.65 M213.5 1.76 C215.16 31.08, 215.88 52.78, 210.1 121.54 M211.1 117.24 C134.44 118.92, 55.35 117.86, -3 117.64 M1.04 120.93 C1.21 81.39, -2.26 41.94, 0.42 -3.51" stroke="#12b886" stroke-width="1.5" fill="none" stroke-dasharray="8 9"></path></g><g transform="translate(1417.8089796401482 108.72732506027205) rotate(0 96.91370391845703 33)"><text x="96.91370391845703" y="15.84816002179152" font-family="Virgil, Segoe UI Emoji" font-size="16.44876999520984px" fill="#12b886" text-anchor="middle" style="white-space: pre;" direction="ltr" dominant-baseline="alphabetic">Same network. In same </text><text x="96.91370391845703" y="37.84816002179152" font-family="Virgil, Segoe UI Emoji" font-size="16.44876999520984px" fill="#12b886" text-anchor="middle" style="white-space: pre;" direction="ltr" dominant-baseline="alphabetic">or separate binary.</text><text x="96.91370391845703" y="59.84816002179152" font-family="Virgil, Segoe UI Emoji" font-size="16.44876999520984px" fill="#12b886" text-anchor="middle" style="white-space: pre;" direction="ltr" dominant-baseline="alphabetic">Stateful</text></g><g stroke-linecap="round" transform="translate(1198.5333016778086 81.96605313756481) rotate(0 93.03300171850469 37.98064511600387)"><path d="M-2.54 2.61 L186.57 2.68 L188.65 76.08 L-2.86 74.72" stroke="none" stroke-width="0" fill="#a5d8ff"></path><path d="M1.59 -1.82 C71.74 -0.58, 134.01 -4.62, 183.36 0.75 M188.25 3.56 C189.34 21.64, 184 50.96, 188.63 75.68 M185.24 74.25 C117.27 71.84, 50.69 73.91, 0.59 78.46 M2.68 76.23 C-1.18 48.46, 0.02 21.32, 3.95 -0.88" stroke="#7950f2" stroke-width="1.5" fill="none" stroke-dasharray="8 9"></path></g><g transform="translate(1251.715778493969 108.94669825356868) rotate(0 39.85052490234375 11)"><text x="39.85052490234375" y="15.84816002179152" font-family="Virgil, Segoe UI Emoji" font-size="16.44876999520984px" fill="#7950f2" text-anchor="middle" style="white-space: pre;" direction="ltr" dominant-baseline="alphabetic">Stateless</text></g><g stroke-linecap="round"><g transform="translate(1167.6735388120715 305.38908166047986) rotate(0 63.49780256963777 -68.05205464407663)"><path d="M-0.39 -0.12 C20.55 -23.11, 104.46 -114.3, 125.88 -137.01" stroke="#228be6" stroke-width="1.5" fill="none" stroke-dasharray="1.5 7"></path></g></g><mask></mask><g stroke-linecap="round" transform="translate(1679.3776317218235 453.5868298128062) rotate(0 157.8359729014992 63.415515101340134)"><path d="M31.71 0 C128.78 0.14, 216.89 4.34, 283.96 0 C301.8 0.89, 318.26 6.58, 315.67 31.71 C315.92 47.23, 313.66 68.55, 315.67 95.12 C311.02 119.31, 306.99 130.57, 283.96 126.83 C224.07 122.96, 175.94 127.79, 31.71 126.83 C11.07 123.95, -4.53 119.76, 0 95.12 C0.08 78.21, -0.64 56.82, 0 31.71 C3.34 13.79, 14.43 0.69, 31.71 0" stroke="none" stroke-width="0" fill="#b2f2bb"></path><path d="M31.71 0 C85.96 2.34, 137.85 2.61, 283.96 0 M31.71 0 C94.93 3.18, 158.39 4.69, 283.96 0 M283.96 0 C307.15 -2.19, 316.44 7.94, 315.67 31.71 M283.96 0 C304.9 4.31, 314.7 8.59, 315.67 31.71 M315.67 31.71 C317.22 48.64, 316.89 58.89, 315.67 95.12 M315.67 31.71 C313.65 51.56, 316.8 67.76, 315.67 95.12 M315.67 95.12 C315.41 120.01, 303.59 126.2, 283.96 126.83 M315.67 95.12 C312.76 112.82, 309.63 126.46, 283.96 126.83 M283.96 126.83 C224.78 131.98, 168.06 126.83, 31.71 126.83 M283.96 126.83 C193.12 128.33, 100.06 128.34, 31.71 126.83 M31.71 126.83 C13.2 123.47, 0.46 118.56, 0 95.12 M31.71 126.83 C11.55 128.83, -4.16 118.17, 0 95.12 M0 95.12 C-2.17 80.44, 0.14 67.76, 0 31.71 M0 95.12 C1.38 68.88, 1.37 46.25, 0 31.71 M0 31.71 C0.32 13.79, 7.66 -2.9, 31.71 0 M0 31.71 C-0.92 9.5, 13.47 1.76, 31.71 0" stroke="#12b886" stroke-width="2" fill="none"></path></g><g transform="translate(1723.1016737761547 497.0023449141463) rotate(0 114.11193084716797 20)"><text x="114.11193084716797" y="14.016" font-family="Virgil, Segoe UI Emoji" font-size="16px" fill="#12b886" text-anchor="middle" style="white-space: pre;" direction="ltr" dominant-baseline="alphabetic">Image Runtimes</text><text x="114.11193084716797" y="34.016" font-family="Virgil, Segoe UI Emoji" font-size="16px" fill="#12b886" text-anchor="middle" style="white-space: pre;" direction="ltr" dominant-baseline="alphabetic">(e.g. K8s, Container Runtime)</text></g><g stroke-linecap="round"><g transform="translate(1657.0770758797744 526.1933176298917) rotate(0 -240.709946476833 18.01279407796028)"><path d="M-1.19 0.55 C-81.57 6.67, -402.55 31.16, -482.61 37.14" stroke="#69db7c" stroke-width="2.5" fill="none" stroke-dasharray="8 10"></path></g><g transform="translate(1657.0770758797744 526.1933176298917) rotate(0 -240.709946476833 18.01279407796028)"><path d="M-459.83 26.84 C-465.09 27.43, -470.35 31.94, -482.61 37.14" stroke="#69db7c" stroke-width="2.5" fill="none"></path></g><g transform="translate(1657.0770758797744 526.1933176298917) rotate(0 -240.709946476833 18.01279407796028)"><path d="M-458.54 43.89 C-464.21 39.83, -469.82 39.7, -482.61 37.14" stroke="#69db7c" stroke-width="2.5" fill="none"></path></g></g><mask></mask><g stroke-linecap="round" transform="translate(1649.1577509740864 82.14869128684222) rotate(0 169.3847217530315 65)"><path d="M0.5 2.68 L341.35 0.12 L335.91 128.76 L-0.45 133.5" stroke="none" stroke-width="0" fill="#ffec99"></path><path d="M1.91 0.68 C113.66 0.04, 230.53 2.56, 339.16 0.65 M341.67 -2.26 C337.76 47.9, 342.75 89.19, 340.95 128.38 M336.89 128.05 C245.87 127.5, 157.92 129.73, 0.98 130.7 M-0.78 128.07 C-1.33 79.19, 2.21 34.53, -2.54 2.61" stroke="#fab005" stroke-width="2.5" fill="none" stroke-dasharray="8 10"></path></g><g transform="translate(1654.1577509740864 87.14869128684222) rotate(0 149.74391174316406 60)"><text x="0" y="14.016" font-family="Virgil, Segoe UI Emoji" font-size="16px" fill="#fab005" text-anchor="start" style="white-space: pre;" direction="ltr" dominant-baseline="alphabetic">Consumer Configuration</text><text x="0" y="34.016" font-family="Virgil, Segoe UI Emoji" font-size="16px" fill="#fab005" text-anchor="start" style="white-space: pre;" direction="ltr" dominant-baseline="alphabetic"></text><text x="0" y="54.016" font-family="Virgil, Segoe UI Emoji" font-size="16px" fill="#fab005" text-anchor="start" style="white-space: pre;" direction="ltr" dominant-baseline="alphabetic">1.  containerD/CRI-O Mirror Config</text><text x="0" y="74.016" font-family="Virgil, Segoe UI Emoji" font-size="16px" fill="#fab005" text-anchor="start" style="white-space: pre;" direction="ltr" dominant-baseline="alphabetic">2. HTTP Proxy</text><text x="0" y="94.016" font-family="Virgil, Segoe UI Emoji" font-size="16px" fill="#fab005" text-anchor="start" style="white-space: pre;" direction="ltr" dominant-baseline="alphabetic">3. Direct Reference </text><text x="0" y="114.016" font-family="Virgil, Segoe UI Emoji" font-size="16px" fill="#fab005" text-anchor="start" style="white-space: pre;" direction="ltr" dominant-baseline="alphabetic">3.5 Direct Ref. via Mutating Webhook</text></g><g stroke-linecap="round"><g transform="translate(1830.0227366838471 230.80157797706488) rotate(0 3.7277466477421513 102.90626792838975)"><path d="M-1.12 -0.31 C0.31 33.8, 7.12 170.87, 8.43 205.04" stroke="#fab005" stroke-width="1.5" fill="none" stroke-dasharray="1.5 7"></path></g></g><mask></mask><g stroke-linecap="round" transform="translate(1690.450261084733 582.1085917618384) rotate(0 148.44130620510123 40.36038834955161)"><path d="M20.18 0 C81.93 4.93, 145.78 4.2, 276.7 0 C292.74 -3.99, 295.89 1.5, 296.88 20.18 C296.92 31.12, 292.62 43.01, 296.88 60.54 C298.77 77.73, 285.78 85.46, 276.7 80.72 C214.34 82.18, 144.67 76.53, 20.18 80.72 C2.2 84.21, 1.54 70.29, 0 60.54 C-1.59 48.75, 3.56 33.69, 0 20.18 C3.86 7.42, 1.49 -3.18, 20.18 0" stroke="none" stroke-width="0" fill="#12b886"></path><path d="M20.18 0 C100.05 -0.46, 175.73 -3.66, 276.7 0 M20.18 0 C74.74 2.08, 130.41 0.07, 276.7 0 M276.7 0 C290.93 -2.63, 296.71 10.47, 296.88 20.18 M276.7 0 C289.18 -1.98, 293.01 10.6, 296.88 20.18 M296.88 20.18 C297.14 30.15, 296.95 37.92, 296.88 60.54 M296.88 20.18 C298.35 28.96, 296.27 43.44, 296.88 60.54 M296.88 60.54 C295.37 73.37, 287.63 77.72, 276.7 80.72 M296.88 60.54 C301.41 73.62, 286.79 77.82, 276.7 80.72 M276.7 80.72 C185.4 82.61, 99.1 82.99, 20.18 80.72 M276.7 80.72 C192.57 82.26, 110.51 80.47, 20.18 80.72 M20.18 80.72 C7.19 83.02, 0.85 75.73, 0 60.54 M20.18 80.72 C2.56 82.63, -2.84 71.52, 0 60.54 M0 60.54 C0.03 48.51, 4.32 31.07, 0 20.18 M0 60.54 C0.88 51.46, -0.44 41.89, 0 20.18 M0 20.18 C-2.9 3.82, 5.93 -0.93, 20.18 0 M0 20.18 C2.9 8.49, 10.03 4.56, 20.18 0" stroke="#96f2d7" stroke-width="2" fill="none"></path></g><g transform="translate(1714.2676354050682 612.4689801113909) rotate(0 124.62393188476562 10)"><text x="124.62393188476562" y="14.016" font-family="Virgil, Segoe UI Emoji" font-size="16px" fill="#96f2d7" text-anchor="middle" style="white-space: pre;" direction="ltr" dominant-baseline="alphabetic">Container Runtime Configuration</text></g><g mask="url(#mask-73JSQuA2XgwcA2nYfYHM4)" stroke-linecap="round"><g transform="translate(1200.1013570164669 370.27974003728195) rotate(0 238.46093192782882 123.23238617425795)"><path d="M0.57 -0.94 C80.32 40.51, 398.2 206.56, 477.75 247.65" stroke="#2f9e44" stroke-width="2.5" fill="none" stroke-dasharray="8 10"></path></g><g transform="translate(1200.1013570164669 370.27974003728195) rotate(0 238.46093192782882 123.23238617425795)"><path d="M452.96 244.4 C457.23 246.43, 466.64 247.39, 477.75 247.65" stroke="#2f9e44" stroke-width="2.5" fill="none"></path></g><g transform="translate(1200.1013570164669 370.27974003728195) rotate(0 238.46093192782882 123.23238617425795)"><path d="M460.85 229.23 C463.11 234.88, 470.65 239.44, 477.75 247.65" stroke="#2f9e44" stroke-width="2.5" fill="none"></path></g></g><mask id="mask-73JSQuA2XgwcA2nYfYHM4"><rect x="0" y="0" fill="#fff" width="1777.0232208721245" height="716.7445123857979"></rect><rect x="1364.3863322182215" y="453.512126211539" fill="#000" width="148.35191345214844" height="80" opacity="1"></rect></mask><g transform="translate(1364.3863322182215 453.512126211539) rotate(0 74.87192990630865 40.121383096278805)"><text x="74.17595672607422" y="14.016" font-family="Virgil, Segoe UI Emoji" font-size="16px" fill="#2f9e44" text-anchor="middle" style="white-space: pre;" direction="ltr" dominant-baseline="alphabetic">Update of Runtime</text><text x="74.17595672607422" y="34.016" font-family="Virgil, Segoe UI Emoji" font-size="16px" fill="#2f9e44" text-anchor="middle" style="white-space: pre;" direction="ltr" dominant-baseline="alphabetic">Configuration with </text><text x="74.17595672607422" y="54.016" font-family="Virgil, Segoe UI Emoji" font-size="16px" fill="#2f9e44" text-anchor="middle" style="white-space: pre;" direction="ltr" dominant-baseline="alphabetic">local mirror host</text><text x="74.17595672607422" y="74.016" font-family="Virgil, Segoe UI Emoji" font-size="16px" fill="#2f9e44" text-anchor="middle" style="white-space: pre;" direction="ltr" dominant-baseline="alphabetic">(Optional)</text></g><g stroke-linecap="round" transform="translate(825.7515454416061 82.16695510177124) rotate(0 122.22885785466997 38.89203688870657)"><path d="M2.58 0.12 L241.6 -1.24 L244.01 81.29 L1.13 80.1" stroke="none" stroke-width="0" fill="#ffc9c9"></path><path d="M-3.09 -2.49 C60 -0.41, 124.94 -0.23, 245.92 1.8 M242.03 3.16 C248.15 29.97, 247.77 58.88, 243.16 76.96 M241.64 77.09 C182.04 76.91, 119.86 75.71, 2.11 80 M0.42 74.27 C4.26 53.05, -2.24 32.7, 0.5 2.68" stroke="#e03131" stroke-width="1.5" fill="none" stroke-dasharray="8 9"></path></g><g transform="translate(850.9484513919788 99.65921558759146) rotate(0 97.03195190429688 21.399776402886346)"><text x="97.03195190429688" y="15.415776402886559" font-family="Virgil, Segoe UI Emoji" font-size="16px" fill="#e03131" text-anchor="middle" style="white-space: pre;" direction="ltr" dominant-baseline="alphabetic">Hirarchy of Options</text><text x="97.03195190429688" y="36.815552805773116" font-family="Virgil, Segoe UI Emoji" font-size="16px" fill="#e03131" text-anchor="middle" style="white-space: pre;" direction="ltr" dominant-baseline="alphabetic">Interface can be a file </text></g><g stroke-linecap="round" transform="translate(225.23482457640694 146.44825437598047) rotate(0 133.28438097325716 50)"><path d="M25 0 C71.81 -1.78, 118.31 -2.48, 241.57 0 M25 0 C87.23 0.54, 148.04 0.55, 241.57 0 M241.57 0 C256.46 -0.47, 265.8 7.51, 266.57 25 M241.57 0 C257.3 0.72, 268.52 7.69, 266.57 25 M266.57 25 C266.51 37.63, 267 54.26, 266.57 75 M266.57 25 C266.6 36.3, 265.77 49.36, 266.57 75 M266.57 75 C264.86 90.37, 256.64 98.34, 241.57 100 M266.57 75 C267.22 90.04, 257.27 100.06, 241.57 100 M241.57 100 C172.15 101.25, 106.66 100.28, 25 100 M241.57 100 C184.47 98.97, 129.38 97.8, 25 100 M25 100 C7.84 101.61, -1.83 91.26, 0 75 M25 100 C8.98 101.16, 0.73 90.26, 0 75 M0 75 C1.04 64.06, 0.84 55.31, 0 25 M0 75 C1.1 63.55, 0.04 54.8, 0 25 M0 25 C-1.52 8.05, 9.33 1.42, 25 0 M0 25 C-0.26 9.64, 9.57 -0.71, 25 0" stroke="#099268" stroke-width="4" fill="none"></path></g><g transform="translate(284.97926566929345 183.94825437598047) rotate(0 73.5399398803711 12.5)"><text x="73.5399398803711" y="17.52" font-family="Virgil, Segoe UI Emoji" font-size="20px" fill="#099268" text-anchor="middle" style="white-space: pre;" direction="ltr" dominant-baseline="alphabetic">Ground Control</text></g><g mask="url(#mask-Ksc_a7lw-T-qNkyP2wBKt)" stroke-linecap="round"><g transform="translate(884.145147922989 320.2534941917438) rotate(0 -186.43755149630215 -63.363246544013236)"><path d="M-0.42 -0.18 C-62.54 -21.59, -310.67 -106.14, -372.62 -127.32" stroke="#1e1e1e" stroke-width="2.5" fill="none" stroke-dasharray="8 10"></path></g><g transform="translate(884.145147922989 320.2534941917438) rotate(0 -186.43755149630215 -63.363246544013236)"><path d="M-347.63 -127.82 C-355.55 -127.34, -363.87 -126.35, -372.62 -127.32" stroke="#1e1e1e" stroke-width="2.5" fill="none"></path></g><g transform="translate(884.145147922989 320.2534941917438) rotate(0 -186.43755149630215 -63.363246544013236)"><path d="M-353.15 -111.64 C-359.55 -116.07, -366.18 -120.02, -372.62 -127.32" stroke="#1e1e1e" stroke-width="2.5" fill="none"></path></g></g><mask id="mask-Ksc_a7lw-T-qNkyP2wBKt"><rect x="0" y="0" fill="#fff" width="1357.0202509155934" height="546.9799872797703"></rect><rect x="592.0436559969994" y="216.89024764773058" fill="#000" width="211.327880859375" height="80" opacity="1"></rect></mask><g transform="translate(592.0436559969994 216.89024764773058) rotate(0 105.58003108352432 39.611951352655524)"><text x="105.6639404296875" y="14.016" font-family="Virgil, Segoe UI Emoji" font-size="16px" fill="#1e1e1e" text-anchor="middle" style="white-space: pre;" direction="ltr" dominant-baseline="alphabetic"></text><text x="105.6639404296875" y="34.016" font-family="Virgil, Segoe UI Emoji" font-size="16px" fill="#1e1e1e" text-anchor="middle" style="white-space: pre;" direction="ltr" dominant-baseline="alphabetic">Fetch a list of images to </text><text x="105.6639404296875" y="54.016" font-family="Virgil, Segoe UI Emoji" font-size="16px" fill="#1e1e1e" text-anchor="middle" style="white-space: pre;" direction="ltr" dominant-baseline="alphabetic">replicate</text><text x="105.6639404296875" y="74.016" font-family="Virgil, Segoe UI Emoji" font-size="16px" fill="#1e1e1e" text-anchor="middle" style="white-space: pre;" direction="ltr" dominant-baseline="alphabetic">(Optional)</text></g><g stroke-linecap="round"><g transform="translate(814.1530011244531 166.82043110573795) rotate(0 -32.9373305944473 29.313075932092943)"><path d="M0 0 C-10.98 9.77, -54.9 48.86, -65.87 58.63" stroke="#868e96" stroke-width="1.5" fill="none" stroke-dasharray="1.5 7"></path></g></g><mask></mask><g stroke-linecap="round"><g transform="translate(359.0456937646304 255.68737926934045) rotate(0 -0.011336121185195225 54.08803595902282)"><path d="M0 0 C0 18.03, -0.02 90.15, -0.02 108.18" stroke="#1971c2" stroke-width="2.5" fill="none" stroke-dasharray="8 10"></path></g><g transform="translate(359.0456937646304 255.68737926934045) rotate(0 -0.011336121185195225 54.08803595902282)"><path d="M-8.57 84.68 C-5.47 93.21, -2.37 101.73, -0.02 108.18" stroke="#1971c2" stroke-width="2.5" fill="none"></path></g><g transform="translate(359.0456937646304 255.68737926934045) rotate(0 -0.011336121185195225 54.08803595902282)"><path d="M8.53 84.69 C5.43 93.21, 2.32 101.73, -0.02 108.18" stroke="#1971c2" stroke-width="2.5" fill="none"></path></g></g><mask></mask><g stroke-linecap="round"><g transform="translate(10 880.4715089304373) rotate(0 353.4852489217619 -0.5780785255456067)"><path d="M0 0 C117.83 -0.19, 589.14 -0.96, 706.97 -1.16" stroke="#1971c2" stroke-width="4.5" fill="none" stroke-dasharray="8 12"></path></g></g><mask></mask><g stroke-linecap="round"><g transform="translate(1210.993456505168 875.1683775874772) rotate(0 392.00459549401694 -1.1915298621597685)"><path d="M0 0 C130.67 -0.4, 653.34 -1.99, 784.01 -2.38" stroke="#1971c2" stroke-width="4.5" fill="none" stroke-dasharray="8 12"></path></g></g><mask></mask><g stroke-linecap="round"><g transform="translate(802.329553583103 876.0714898700498) rotate(0 177.19751235830972 -0.4473692705905705)"><path d="M0 0 C59.07 -0.15, 295.33 -0.75, 354.4 -0.89" stroke="#1971c2" stroke-width="4.5" fill="none" stroke-dasharray="8 12"></path></g></g><mask></mask><g mask="url(#mask-OgBDC-1P09ZXmrgW0ksbM)" stroke-linecap="round"><g transform="translate(1667.5308397136605 566.8070677051946) rotate(0 -581.7379353107126 124.96569774306863)"><path d="M0 0 C-103.66 41.74, -428.02 250.55, -621.94 250.46 C-815.85 250.37, -1073.22 41.3, -1163.48 -0.53 M0 0 C-103.66 41.74, -428.02 250.55, -621.94 250.46 C-815.85 250.37, -1073.22 41.3, -1163.48 -0.53" stroke="#ff8787" stroke-width="4" fill="none"></path></g><g transform="translate(1667.5308397136605 566.8070677051946) rotate(0 -581.7379353107126 124.96569774306863)"><path d="M-1138.95 4.31 C-1145.31 3.06, -1151.68 1.8, -1163.48 -0.53 M-1138.95 4.31 C-1145.82 2.96, -1152.69 1.6, -1163.48 -0.53" stroke="#ff8787" stroke-width="4" fill="none"></path></g><g transform="translate(1667.5308397136605 566.8070677051946) rotate(0 -581.7379353107126 124.96569774306863)"><path d="M-1147.8 18.95 C-1151.87 13.89, -1155.93 8.84, -1163.48 -0.53 M-1147.8 18.95 C-1152.19 13.49, -1156.58 8.03, -1163.48 -0.53" stroke="#ff8787" stroke-width="4" fill="none"></path></g></g><mask id="mask-OgBDC-1P09ZXmrgW0ksbM"><rect x="0" y="0" fill="#fff" width="2931.0067103350857" height="917.7949786896443"></rect><rect x="880.0826996415553" y="807.2667209404881" fill="#000" width="331.0238037109375" height="20" opacity="1"></rect></mask><g transform="translate(880.0826996415553 807.2667209404881) rotate(0 205.71020476139256 -115.49394157499955)"><text x="165.51190185546875" y="14.016" font-family="Virgil, Segoe UI Emoji" font-size="16px" fill="#ff8787" text-anchor="middle" style="white-space: pre;" direction="ltr" dominant-baseline="alphabetic">Optional direct access to remote registry</text></g><g stroke-linecap="round"><g transform="translate(790.8465668273438 60.793462810521305) rotate(0 0.8003927390468561 387.41106977794334)"><path d="M0 0 C0.27 129.14, 1.33 645.69, 1.6 774.82" stroke="#846358" stroke-width="4.5" fill="none" stroke-dasharray="1.5 10"></path></g></g><mask></mask><g transform="translate(642.9327895612532 10) rotate(0 171.12594604492188 22.5)"><text x="0" y="31.536" font-family="Virgil, Segoe UI Emoji" font-size="36px" fill="#846358" text-anchor="start" style="white-space: pre;" direction="ltr" dominant-baseline="alphabetic">Network Bounderies</text></g></svg>